<svg width="80" height="89" viewBox="0 0 80 89" fill="none" xmlns="http://www.w3.org/2000/svg">
<path d="M50.9911 25.952C51.8782 26.7237 51.4347 31.9504 50.5476 37.1681C46.9994 35.4991 42.3379 35.5799 42.3379 35.5799C42.8834 32.5515 43.1806 29.8956 43.4467 27.4191C43.5111 26.9169 43.4696 26.4067 43.3252 25.9219C43.1807 25.437 42.9364 24.9886 42.6084 24.6061C42.6084 24.6061 49.2259 24.4581 50.9911 25.952Z" fill="#DEDEDE"/>
<path d="M39.3076 49.7788C39.7147 53.7245 43.2447 61.8626 49.9172 61.8626C58.2577 61.8626 64.6524 48.6572 75.7728 48.6572L79.1998 48.499" stroke="white" stroke-width="3"/>
<path d="M50.5387 37.168C50.2815 38.6799 49.9932 40.1874 49.6916 41.5782C47.434 39.9406 41.4375 39.6759 41.4375 39.6759C41.8012 38.2313 42.0895 36.8719 42.3246 35.5798C42.329 35.5664 46.9772 35.4856 50.5387 37.168Z" fill="#2882BE"/>
<path d="M49.6922 41.5648C49.0225 44.7053 48.2996 47.2402 47.7984 48.0253C46.2992 50.3537 44.086 51.6144 37.9121 49.9544C38.9414 47.715 39.8042 45.4011 40.4934 43.0319C40.8571 41.8565 41.1676 40.7393 41.4382 39.6626C41.4382 39.6626 47.4347 39.9273 49.6922 41.5648Z" fill="#DEDEDE"/>
<path d="M33.7864 0.379395C31.3641 0.379508 29.007 1.17277 27.0675 2.64054C25.1279 4.10832 23.7102 6.17174 23.0264 8.52224C23.0264 8.52224 28.3265 4.9331 37.614 8.52224C38.7711 10.3357 39.5597 12.3642 39.9337 14.4892C40.3591 16.6746 40.4071 18.9181 40.0756 21.1201C42.0631 19.7586 43.5665 17.788 44.3646 15.4981C45.1627 13.2082 45.2136 10.7197 44.5097 8.39836C43.8058 6.07703 42.3843 4.04534 40.454 2.60192C38.5238 1.1585 36.1868 0.37949 33.7864 0.379395ZM42.2134 16.9791C41.2643 16.9477 40.497 15.88 40.2397 14.4129C40.1659 13.982 40.1377 13.5443 40.1555 13.1074C40.2264 11.0122 41.2687 9.34774 42.484 9.3926C43.6993 9.43747 44.6174 11.1872 44.542 13.2644C44.5294 13.6971 44.4714 14.1272 44.369 14.5475C43.9876 16.0145 43.1404 17.033 42.1913 16.9791L42.2134 16.9791Z" fill="white"/>
<path d="M42.4616 9.41066C43.6724 9.46001 44.595 11.2052 44.524 13.2824C44.5079 13.7151 44.4484 14.145 44.3466 14.5655C43.9918 16.0147 43.1446 17.0331 42.1955 16.9972C41.2463 16.9613 40.4746 15.898 40.2174 14.431C40.1436 14 40.1153 13.5624 40.1331 13.1254C40.2085 11.0303 41.2463 9.35233 42.4616 9.41066Z" fill="#2882BE"/>
<path d="M42.6083 24.6061C42.9345 24.9871 43.1777 25.4332 43.3222 25.9156C43.4666 26.3979 43.509 26.9056 43.4465 27.4057C43.1583 29.8822 42.8833 32.5381 42.3289 35.553C42.0894 36.8451 41.8011 38.2045 41.4418 39.6491C41.1712 40.7258 40.8608 41.8429 40.4971 43.0184C39.8079 45.3876 38.945 47.7015 37.9157 49.9409C36.7315 52.377 35.432 53.9787 33.8175 54.7324C33.8175 54.7324 31.8172 60.6186 28.7081 63.3688C28.7081 63.3688 35.9154 70.4663 34.1857 72.687L34.1324 72.714C33.6002 72.9697 29.3024 75.0693 28.2424 77.483C28.2128 77.4985 28.1815 77.5105 28.1492 77.5189C27.7057 77.6086 25.8695 77.4965 22.4942 70.3855C22.6185 70.3474 22.7333 70.2832 22.8313 70.1971C23.2748 69.7933 23.5277 68.066 22.1305 65.7555C21.0439 63.961 20.3919 63.2072 19.8907 63.1175C21.137 60.2058 24.7695 55.2214 24.5611 54.4587C24.3083 53.5929 21.5894 52.1393 20.1701 52.2155C18.7509 52.2918 11.6056 52.045 11.4504 53.4224C11.2951 54.7997 15.7127 61.157 13.3176 62.0722C13.3176 62.0722 8.98878 62.0722 5.99496 62.8753C5.99496 62.8753 4.38938 63.0637 3.70191 56.684C3.6132 55.845 3.45353 55.0465 3.30273 54.2838C3.51728 54.4449 3.78113 54.5243 4.04786 54.5081C4.63332 54.4408 5.84859 53.1981 6.05705 50.4972C6.23003 48.254 6.11471 47.267 5.68892 46.9664C9.40569 44.8488 17.0832 43.1889 17.2961 42.3006C17.5267 41.318 18.7331 35.0729 18.7331 35.0729C18.9712 33.4221 19.3209 31.7897 19.7798 30.1872C20.6891 27.0467 22.268 23.1929 24.8716 21.4073C25.4471 21.0104 26.0909 20.7259 26.7699 20.5684C28.021 21.5888 29.4747 22.3248 31.0322 22.7263C31.0322 22.7263 24.2462 37.684 21.8378 48.3393C21.8663 48.4809 21.9269 48.614 22.0149 48.7279C22.1029 48.8419 22.2159 48.9335 22.3449 48.9958C22.4739 49.058 22.6155 49.089 22.7584 49.0864C22.9013 49.0838 23.0417 49.0477 23.1684 48.9808C23.1684 48.9808 29.8746 27.8364 32.7974 23.0673L32.7974 23.0224C33.1256 23.0538 33.4538 23.0673 33.7821 23.0673C35.3373 23.0736 36.8767 22.7512 38.3016 22.1207C39.4814 22.4706 41.4728 23.2288 42.6083 24.6061Z" fill="white"/>
<path d="M40.076 21.1198C39.5155 21.5064 38.9217 21.8412 38.3019 22.1203C36.8839 22.7478 35.3523 23.0701 33.8045 23.0669C33.4763 23.0669 33.1481 23.0669 32.8199 23.022C32.2212 22.9723 31.6278 22.8718 31.0458 22.7214C29.5863 22.3424 28.2171 21.6701 27.0198 20.7446C25.8225 19.8191 24.8216 18.6594 24.0767 17.3345C23.3318 16.0095 22.858 14.5465 22.6838 13.0325C22.5095 11.5185 22.6382 9.98455 23.0623 8.52193C23.0623 8.52193 28.358 4.9328 37.6499 8.52193C38.8044 10.3363 39.5914 12.3645 39.9651 14.4889C40.3808 16.6761 40.4183 18.9196 40.076 21.1198Z" fill="#353F6F"/>
<path d="M35.3169 74.3247C35.3169 74.3247 39.9252 78.9233 39.7167 79.8789C39.5083 80.8345 29.5466 88.762 28.7837 88.0801C28.0209 87.3981 26.1225 82.7457 30.7796 80.0628L29.449 78.7483L35.3169 74.3247Z" fill="#303C74"/>
<path d="M34.1721 72.7314L35.3164 74.3241L29.4308 78.7477L28.2288 77.5454L28.1445 77.5454C28.1768 77.537 28.2081 77.5249 28.2377 77.5095C29.2977 75.0958 33.5955 72.9961 34.1277 72.7404L34.1721 72.7314Z" fill="#2882BE"/>
<path d="M32.8024 23.0223L32.8024 23.0671C29.8751 27.8362 23.1734 48.9807 23.1734 48.9807C23.0466 49.0475 22.9063 49.0837 22.7634 49.0862C22.6204 49.0888 22.4789 49.0578 22.3499 48.9956C22.2208 48.9334 22.1079 48.8417 22.0199 48.7278C21.9319 48.6138 21.8712 48.4808 21.8428 48.3391C24.2511 37.6839 31.0283 22.7217 31.0283 22.7217C31.6103 22.872 32.2037 22.9726 32.8024 23.0223Z" fill="#CDD2D2"/>
<path d="M8.88281 26.019L24.8499 21.4204C22.2463 23.215 20.6674 27.0464 19.7581 30.2003C16.9107 31.5956 13.4112 32.3493 10.7323 32.7441C10.8643 32.6191 10.9567 32.4574 10.9977 32.2793C11.0388 32.1012 11.0267 31.9148 10.963 31.7437L8.88281 26.019Z" fill="#DEDEDE"/>
<path d="M22.827 70.2105C22.7277 70.2947 22.6133 70.3587 22.4899 70.3989C21.8468 70.6232 20.6049 70.4303 19.23 68.1826C18.7474 67.4338 18.5112 66.5499 18.555 65.6571C18.5988 64.7644 18.9204 63.9085 19.4739 63.2117C19.596 63.1363 19.7408 63.1077 19.882 63.1309C20.3876 63.2206 21.0396 63.9789 22.1218 65.7689C23.5234 68.0794 23.2572 69.8067 22.827 70.2105Z" fill="#DEDEDE"/>
<path d="M13.9079 63.6377C14.1252 64.369 15.7175 69.8693 15.1276 70.5557C14.5377 71.2422 2.00354 73.4405 1.64428 72.4804C1.28502 71.5203 1.84387 66.518 7.18396 66.4013L6.65172 64.6516L13.8635 63.6781L13.8635 63.6556L13.9079 63.6377Z" fill="#303C74"/>
<path d="M6.6432 64.6607L6.52345 64.6607L5.99121 62.8661C8.98503 62.0406 13.3139 62.063 13.3139 62.063L13.8505 63.6423L13.8505 63.6647L6.6432 64.6607Z" fill="#2882BE"/>
<path d="M6.04849 50.5106C5.84447 53.2025 4.62476 54.4542 4.03931 54.5215C3.77262 54.5374 3.50889 54.458 3.29418 54.2972C2.72202 53.9024 2.14987 52.9154 2.30511 50.7484C2.35084 49.8527 2.67593 48.9947 3.23372 48.2975C3.7915 47.6003 4.55331 47.0997 5.40981 46.8677C5.51574 46.877 5.61705 46.9159 5.70254 46.9798C6.10615 47.2804 6.22147 48.2629 6.04849 50.5106Z" fill="#DEDEDE"/>
<path d="M16.9281 28.9804C17.1981 28.82 17.4992 28.7206 17.8108 28.6888C18.1223 28.6571 18.437 28.6938 18.7332 28.7965C18.2587 29.0029 17.8462 29.4964 17.3006 30.4071C16.316 32.0671 15.8059 33.3592 15.8858 34.3417C15.8858 34.3417 15.8148 34.2385 15.7172 34.0591C15.3447 33.3951 14.5951 31.6633 15.7172 30.0931C16.0313 29.6333 16.4455 29.2526 16.9281 28.9804Z" fill="#A285F8"/>
<path d="M16.9275 28.9801C16.4465 29.2528 16.0338 29.6334 15.7211 30.0927C14.5856 31.663 15.3352 33.3947 15.7211 34.0587C14.3905 35.6289 10.5628 35.4271 10.4741 32.5064C10.3854 29.5857 12.1063 29.4108 12.1063 29.4108C12.1063 29.4108 9.08589 29.2403 8.91735 28.2308C8.74881 27.2214 9.56933 27.2349 9.56933 27.2349C12.1417 27.0292 14.7136 27.6392 16.9275 28.9801Z" fill="white"/>
<path d="M41.1404 23.5383C44.6133 25.4226 43.2916 29.1239 42.5908 30.887C41.89 32.6502 39.0692 36.8046 32.7977 38.3255C26.5262 39.8464 19.8422 37.1994 17.5624 36.2707C16.4891 35.8221 15.9524 35.2074 15.8859 34.3326C15.8061 33.3501 16.3294 32.058 17.3008 30.398C17.8419 29.5007 18.2588 28.9938 18.7334 28.7874C19.891 28.2804 21.3945 29.4873 25.9584 30.4518C32.3852 31.7978 33.0815 30.0346 35.2371 25.6828C37.3926 21.331 41.1404 23.5383 41.1404 23.5383Z" fill="#DEDEDE"/>
<path d="M4.28337 23.1792C4.37651 23.4708 4.28337 23.7624 4.08821 23.8252C3.89306 23.8881 3.64468 23.7041 3.56485 23.4125C3.48501 23.1209 3.56485 22.8293 3.76 22.762C3.95516 22.6947 4.19466 22.8876 4.28337 23.1792Z" fill="white"/>
<path d="M7.91991 32.2328C7.66416 32.6084 7.33697 32.9287 6.95745 33.175C6.33906 33.5791 5.66907 33.8961 4.966 34.1171C4.18836 34.4111 3.36056 34.5453 2.53103 34.5119C1.81695 34.3145 0.379913 31.3355 0.198066 30.6671C0.0162191 29.9986 0.48636 26.239 0.48636 26.239C0.823442 25.3013 1.43995 25.4852 1.81695 25.6871L2.77941 28.2534C3.47152 27.8442 4.19714 27.4959 4.94826 27.2125C5.343 27.0555 5.65347 26.9478 5.76436 26.9119L5.80871 26.9119C7.982 27.6612 8.99768 30.528 7.91991 32.2328Z" fill="white"/>
<path d="M22.8643 31.7442L20.7664 26.0195L19.2806 21.9458C19.1973 21.7236 19.0338 21.5416 18.823 21.4367C18.6123 21.3318 18.37 21.3117 18.1451 21.3805L1.76445 22.7758C1.64394 22.813 1.53224 22.8749 1.43624 22.9574C1.34025 23.04 1.26199 23.1416 1.2063 23.2559C1.15062 23.3703 1.11868 23.4949 1.11245 23.6222C1.10623 23.7495 1.12586 23.8768 1.17012 23.9961L1.79993 25.6875L2.76239 28.2537C3.4545 27.8445 4.18013 27.4963 4.93125 27.2129L5.74734 26.9123L5.7917 26.9123C7.98273 27.6615 8.99841 30.5283 7.92064 32.2332C7.66489 32.6088 7.3377 32.9291 6.95818 33.1753C6.33978 33.5795 5.6698 33.8965 4.96673 34.1175C5.05436 34.2675 5.1904 34.3824 5.35196 34.4429C5.51352 34.5033 5.69073 34.5057 5.85379 34.4495L22.2921 32.9734C22.4255 32.931 22.5471 32.8572 22.6469 32.7581C22.7793 32.6305 22.8708 32.4657 22.9095 32.2849C22.9483 32.1041 22.9325 31.9158 22.8643 31.7442ZM4.08854 23.8256C3.88896 23.8885 3.64502 23.7045 3.56518 23.4129C3.48535 23.1213 3.56518 22.8297 3.76033 22.7624C3.95549 22.6951 4.20386 22.888 4.2837 23.1796C4.36353 23.4712 4.28813 23.7628 4.08854 23.8256Z" fill="#282B54"/>
<ellipse cx="4.06283" cy="23.5323" rx="1.33333" ry="0.844823" fill="#282B54"/>
<path d="M40.2492 17.4279C39.86 17.4739 39.4657 17.445 39.0871 17.3427C38.2267 17.1094 37.4771 16.5172 36.5945 16.3736C36.0477 16.3222 35.4967 16.4047 34.988 16.6139C34.4793 16.8232 34.0278 17.1531 33.6717 17.576C33.0152 18.2848 32.4741 19.2314 31.5427 19.4288C30.8331 19.5769 30.1279 19.227 29.4581 18.9802C28.7884 18.7335 27.9723 18.5316 27.378 18.9398C27.1924 19.0939 27.0421 19.2867 26.9372 19.5051C26.8323 19.7235 26.7754 19.9623 26.7703 20.205C26.7637 20.326 26.7637 20.4474 26.7703 20.5684C26.0955 20.0174 25.484 19.3913 24.9474 18.7021C24.9433 18.3815 25.0133 18.0645 25.152 17.7763C25.2906 17.488 25.4939 17.2366 25.7458 17.0421C25.9702 16.9007 26.2182 16.8019 26.4776 16.7505C27.0099 16.6248 27.5598 16.6114 28.0921 16.4678C28.3609 16.417 28.6156 16.3076 28.8385 16.1472C29.0614 15.9869 29.2471 15.7794 29.3827 15.5391C29.5292 15.1069 29.5807 14.6476 29.5335 14.1932C29.5314 13.5773 29.615 12.9641 29.7819 12.3717C29.8222 12.1837 29.9041 12.0073 30.0214 11.8558C30.2689 11.6453 30.5854 11.5364 30.9085 11.5507C31.7512 11.5058 32.5894 11.5776 33.4277 11.5507C34.2727 11.5448 35.1003 11.3076 35.8228 10.8643C36.6034 10.2757 37.1444 9.41893 37.3441 8.45508L37.5969 8.54929C37.5969 8.54929 40.0407 11.9455 40.2492 17.4279Z" fill="#505285"/>
<path d="M28.2199 7.00098C28.0187 7.55212 27.8702 8.12151 27.7764 8.70133C27.63 9.55375 27.4526 10.5452 26.703 10.9445C25.9535 11.3438 25.0398 11.0388 24.3035 11.3932C23.9305 11.6143 23.6239 11.9337 23.4165 12.3174C23.1453 12.7501 22.9193 13.2102 22.7423 13.6902C22.6284 13.031 22.5705 12.363 22.5693 11.6938C22.5693 11.2439 22.596 10.7945 22.6492 10.3478C23.1193 9.94855 23.9044 10.0966 24.4987 9.83639C24.6576 9.76887 24.8001 9.66733 24.9165 9.53877C25.0329 9.41021 25.1203 9.25767 25.1729 9.09165C25.3059 8.6116 25.0841 8.11361 24.9999 7.61562C26.0466 7.28733 27.1269 7.08111 28.2199 7.00098Z" fill="#505285"/>
<path opacity="0.53" d="M24.9952 7.64746C25.0795 8.14545 25.3013 8.64344 25.1682 9.12349C25.1157 9.28951 25.0282 9.44205 24.9118 9.57062C24.7955 9.69918 24.6529 9.80071 24.494 9.86824C23.8997 10.1284 23.1147 9.9804 22.6445 10.3797C22.716 9.75535 22.8407 9.13842 23.0171 8.53577C23.6368 8.15646 24.3015 7.85799 24.9952 7.64746Z" fill="#35376F"/>
</svg>
