<svg width="560" height="227" viewBox="0 0 560 227" fill="none" xmlns="http://www.w3.org/2000/svg">
<mask id="mask0_1344_2165" style="mask-type:alpha" maskUnits="userSpaceOnUse" x="0" y="127" width="560" height="100">
<path fill-rule="evenodd" clip-rule="evenodd" d="M560 226.638H0C77.2698 164.279 174.438 127.116 280 127.116C385.562 127.116 482.73 164.279 560 226.638Z" fill="url(#paint0_linear_1344_2165)"/>
</mask>
<g mask="url(#mask0_1344_2165)">
<path fill-rule="evenodd" clip-rule="evenodd" d="M560 226.638H0C77.2698 164.279 174.438 127.116 280 127.116C385.562 127.116 482.73 164.279 560 226.638Z" fill="url(#paint1_linear_1344_2165)"/>
<g opacity="0.671968" filter="url(#filter0_i_1344_2165)">
<ellipse cx="430.152" cy="189.136" rx="19.4471" ry="10.6802" transform="rotate(16.3062 430.152 189.136)" fill="#E4EFFF"/>
</g>
<g opacity="0.671968" filter="url(#filter1_i_1344_2165)">
<ellipse cx="522.248" cy="215.873" rx="11.3404" ry="6.22807" transform="rotate(16.3062 522.248 215.873)" fill="#4EA9E5"/>
</g>
<g opacity="0.671968" filter="url(#filter2_i_1344_2165)">
<ellipse cx="179.734" cy="182.337" rx="26.7374" ry="11.8833" fill="#E4EFFF"/>
</g>
<g opacity="0.671968" filter="url(#filter3_i_1344_2165)">
<ellipse cx="72.7853" cy="226.899" rx="26.7374" ry="11.8833" fill="#4E94E5"/>
</g>
<g opacity="0.671968" filter="url(#filter4_i_1344_2165)">
<ellipse cx="347.586" cy="220.958" rx="26.7374" ry="11.8833" transform="rotate(9.91572 347.586 220.958)" fill="#4E94E5"/>
</g>
</g>
<path d="M144.972 69.7648C155.267 69.7648 163.613 61.4187 163.613 51.1234C163.613 40.828 155.267 32.4819 144.972 32.4819C134.676 32.4819 126.33 40.828 126.33 51.1234C126.33 61.4187 134.676 69.7648 144.972 69.7648Z" fill="#E4EFFF"/>
<path opacity="0.2" d="M138.623 57.6502C138.623 59.3489 137.282 60.69 135.583 60.69C133.884 60.69 132.543 59.3489 132.543 57.6502C132.543 55.9515 133.884 54.6104 135.583 54.6104C137.237 54.6104 138.623 55.9515 138.623 57.6502Z" fill="white"/>
<path opacity="0.2" d="M134.287 48.8433C134.287 49.8268 133.483 50.6315 132.499 50.6315C131.516 50.6315 130.711 49.8268 130.711 48.8433C130.711 47.8598 131.516 47.0552 132.499 47.0552C133.527 47.0999 134.287 47.9045 134.287 48.8433Z" fill="white"/>
<path opacity="0.4" d="M126.867 55.638C126.956 55.9509 110.907 71.329 115.065 74.5923C119.178 77.8557 136.567 69.4514 151.409 57.5155C166.206 45.5349 179.751 31.0062 176.041 27.1617C172.33 23.3172 153.823 34.7166 153.823 34.7166L156.013 36.1472C156.013 36.1472 167.189 28.9499 170.766 31.7662C174.297 34.5378 164.194 45.4455 149.978 55.8615C135.763 66.2775 121.949 73.5641 119.848 70.7031C117.702 67.8421 127.805 58.3649 127.805 58.3649L126.867 55.638Z" fill="#DBEEFE"/>
<path d="M406.437 59.7276C411.046 68.9329 422.245 72.6589 431.45 68.0498C440.655 63.4407 444.381 52.242 439.772 43.0368C435.163 33.8315 423.964 30.1055 414.759 34.7146C405.554 39.3236 401.828 50.5224 406.437 59.7276Z" fill="#E4EFFF"/>
<path opacity="0.2" d="M414.427 48.625C412.908 49.3855 411.108 48.7867 410.348 47.2679C409.587 45.749 410.186 43.9495 411.705 43.189C413.224 42.4285 415.023 43.0272 415.784 44.5461C416.524 46.025 415.946 47.8645 414.427 48.625Z" fill="white"/>
<path opacity="0.2" d="M420.363 40.8067C419.483 41.247 418.404 40.8878 417.963 40.0084C417.523 39.1291 417.882 38.0494 418.762 37.6091C419.641 37.1688 420.721 37.5281 421.161 38.4074C421.581 39.3467 421.202 40.3865 420.363 40.8067Z" fill="white"/>
<circle cx="429.602" cy="61.441" r="2.97082" fill="white"/>
<circle cx="413.262" cy="58.4703" r="1.48541" fill="white"/>
<circle cx="413.262" cy="45.1017" r="2.97082" fill="white"/>
<circle cx="434.057" cy="43.6158" r="2.97082" fill="white"/>
<path d="M435.099 108.067C435.099 108.067 445.692 126.694 448.341 139.848C448.341 150.357 441.72 153.09 435.099 153.09C428.477 153.09 421.856 150.357 421.856 139.848C424.505 127.93 435.099 108.067 435.099 108.067Z" fill="#E4EFFF"/>
<path d="M114.25 130.348C114.25 130.348 124.844 148.975 127.492 162.129C127.492 172.638 120.871 175.371 114.25 175.371C107.629 175.371 101.008 172.638 101.008 162.129C103.656 150.211 114.25 130.348 114.25 130.348Z" fill="#E4EFFF"/>
<path d="M434 145.854C434 145.381 434.384 144.997 434.857 144.997V144.997C435.33 144.997 435.714 145.381 435.714 145.854V170.706H434V145.854Z" fill="#ACBCF2"/>
<path d="M113 167.854C113 167.381 113.384 166.997 113.857 166.997V166.997C114.33 166.997 114.714 167.381 114.714 167.854V192.706H113V167.854Z" fill="#ACBCF2"/>
<g opacity="0.671968" filter="url(#filter5_i_1344_2165)">
<path d="M283.837 165.867C327.313 165.308 362.467 157.873 362.357 149.26C362.246 140.647 326.912 134.117 283.436 134.676C239.96 135.234 204.805 142.669 204.916 151.282C205.027 159.895 240.361 166.425 283.837 165.867Z" fill="#E4EFFF"/>
</g>
<path d="M305.871 4.827L304.231 4.33587L292.696 39.249L295.641 40.4352L305.871 4.827Z" fill="#6E92E0"/>
<circle cx="3.42604" cy="3.42604" r="3.42604" transform="matrix(-0.999918 0.0128412 0.0128412 0.999918 309.009 0.725586)" fill="#6E92E0"/>
<path d="M261.275 5.40027L262.901 4.86719L275.329 39.4726L272.415 40.734L261.275 5.40027Z" fill="#7FA0E9"/>
<ellipse cx="284.909" cy="50.9748" rx="23.8771" ry="16.7916" transform="rotate(-0.735769 284.909 50.9748)" fill="#5581DF"/>
<path d="M327.668 156.253L224.517 154.155C219.082 154.044 214.649 149.765 214.347 144.337L209.416 55.7886C209.082 49.789 213.888 44.7559 219.897 44.8131L341.969 45.9742L327.668 156.253Z" fill="#608CEA"/>
<path d="M327.655 156.263L340.124 154.125C346.442 153.042 351.353 148.028 352.304 141.688L365.024 56.8727C365.635 52.8027 362.819 49.0122 358.746 48.4211L341.956 45.9842L327.655 156.263Z" fill="#608CEA"/>
<path d="M327.655 156.263L340.124 154.125C346.442 153.042 351.353 148.028 352.304 141.688L365.024 56.8727C365.635 52.8027 362.819 49.0122 358.746 48.4211L341.956 45.9842L327.655 156.263Z" fill="black" fill-opacity="0.1"/>
<circle cx="261.502" cy="4.76213" r="3.42604" transform="rotate(-0.735769 261.502 4.76213)" fill="#7FA0E9"/>
<path d="M224.454 133.059L220.797 67.6983C220.707 66.0836 220.951 64.4677 221.516 62.9504C222.08 61.4331 222.952 60.0467 224.078 58.877C225.204 57.7073 226.56 56.779 228.062 56.1496C229.564 55.5203 231.18 55.2032 232.81 55.218L318.375 56.0466C320.06 56.0627 321.722 56.4329 323.252 57.1329C324.782 57.8329 326.145 58.8466 327.251 60.1073C328.357 61.3681 329.181 62.8471 329.668 64.4469C330.155 66.0467 330.295 67.7309 330.079 69.3884L321.444 135.36C321.07 138.249 319.635 140.901 317.413 142.805C315.191 144.71 312.339 145.734 309.403 145.682L236.139 144.213C233.132 144.16 230.256 142.981 228.089 140.912C225.922 138.843 224.623 136.038 224.454 133.059Z" fill="#E4EFFF"/>
<defs>
<filter id="filter0_i_1344_2165" x="411.244" y="177.519" width="37.8145" height="23.2329" filterUnits="userSpaceOnUse" color-interpolation-filters="sRGB">
<feFlood flood-opacity="0" result="BackgroundImageFix"/>
<feBlend mode="normal" in="SourceGraphic" in2="BackgroundImageFix" result="shape"/>
<feColorMatrix in="SourceAlpha" type="matrix" values="0 0 0 0 0 0 0 0 0 0 0 0 0 0 0 0 0 0 127 0" result="hardAlpha"/>
<feOffset dx="-4.45623" dy="-2.97082"/>
<feComposite in2="hardAlpha" operator="arithmetic" k2="-1" k3="1"/>
<feColorMatrix type="matrix" values="0 0 0 0 0.67451 0 0 0 0 0.737255 0 0 0 0 0.945098 0 0 0 1 0"/>
<feBlend mode="normal" in2="shape" result="effect1_innerShadow_1344_2165"/>
</filter>
<filter id="filter1_i_1344_2165" x="511.223" y="209.099" width="22.0508" height="13.5479" filterUnits="userSpaceOnUse" color-interpolation-filters="sRGB">
<feFlood flood-opacity="0" result="BackgroundImageFix"/>
<feBlend mode="normal" in="SourceGraphic" in2="BackgroundImageFix" result="shape"/>
<feColorMatrix in="SourceAlpha" type="matrix" values="0 0 0 0 0 0 0 0 0 0 0 0 0 0 0 0 0 0 127 0" result="hardAlpha"/>
<feOffset dx="-4.45623" dy="-2.97082"/>
<feComposite in2="hardAlpha" operator="arithmetic" k2="-1" k3="1"/>
<feColorMatrix type="matrix" values="0 0 0 0 0.2 0 0 0 0 0.572549 0 0 0 0 0.615686 0 0 0 1 0"/>
<feBlend mode="normal" in2="shape" result="effect1_innerShadow_1344_2165"/>
</filter>
<filter id="filter2_i_1344_2165" x="152.997" y="170.454" width="53.4746" height="23.7666" filterUnits="userSpaceOnUse" color-interpolation-filters="sRGB">
<feFlood flood-opacity="0" result="BackgroundImageFix"/>
<feBlend mode="normal" in="SourceGraphic" in2="BackgroundImageFix" result="shape"/>
<feColorMatrix in="SourceAlpha" type="matrix" values="0 0 0 0 0 0 0 0 0 0 0 0 0 0 0 0 0 0 127 0" result="hardAlpha"/>
<feOffset dx="-4.45623" dy="-2.97082"/>
<feComposite in2="hardAlpha" operator="arithmetic" k2="-1" k3="1"/>
<feColorMatrix type="matrix" values="0 0 0 0 0.67451 0 0 0 0 0.737255 0 0 0 0 0.945098 0 0 0 1 0"/>
<feBlend mode="normal" in2="shape" result="effect1_innerShadow_1344_2165"/>
</filter>
<filter id="filter3_i_1344_2165" x="46.0479" y="215.016" width="53.4746" height="23.7666" filterUnits="userSpaceOnUse" color-interpolation-filters="sRGB">
<feFlood flood-opacity="0" result="BackgroundImageFix"/>
<feBlend mode="normal" in="SourceGraphic" in2="BackgroundImageFix" result="shape"/>
<feColorMatrix in="SourceAlpha" type="matrix" values="0 0 0 0 0 0 0 0 0 0 0 0 0 0 0 0 0 0 127 0" result="hardAlpha"/>
<feOffset dx="-4.45623" dy="-2.97082"/>
<feComposite in2="hardAlpha" operator="arithmetic" k2="-1" k3="1"/>
<feColorMatrix type="matrix" values="0 0 0 0 0.2 0 0 0 0 0.572549 0 0 0 0 0.615686 0 0 0 1 0"/>
<feBlend mode="normal" in2="shape" result="effect1_innerShadow_1344_2165"/>
</filter>
<filter id="filter4_i_1344_2165" x="321.167" y="208.376" width="52.8369" height="25.1641" filterUnits="userSpaceOnUse" color-interpolation-filters="sRGB">
<feFlood flood-opacity="0" result="BackgroundImageFix"/>
<feBlend mode="normal" in="SourceGraphic" in2="BackgroundImageFix" result="shape"/>
<feColorMatrix in="SourceAlpha" type="matrix" values="0 0 0 0 0 0 0 0 0 0 0 0 0 0 0 0 0 0 127 0" result="hardAlpha"/>
<feOffset dx="-4.45623" dy="-2.97082"/>
<feComposite in2="hardAlpha" operator="arithmetic" k2="-1" k3="1"/>
<feColorMatrix type="matrix" values="0 0 0 0 0.2 0 0 0 0 0.572549 0 0 0 0 0.615686 0 0 0 1 0"/>
<feBlend mode="normal" in2="shape" result="effect1_innerShadow_1344_2165"/>
</filter>
<filter id="filter5_i_1344_2165" x="201.945" y="131.671" width="160.412" height="34.2286" filterUnits="userSpaceOnUse" color-interpolation-filters="sRGB">
<feFlood flood-opacity="0" result="BackgroundImageFix"/>
<feBlend mode="normal" in="SourceGraphic" in2="BackgroundImageFix" result="shape"/>
<feColorMatrix in="SourceAlpha" type="matrix" values="0 0 0 0 0 0 0 0 0 0 0 0 0 0 0 0 0 0 127 0" result="hardAlpha"/>
<feOffset dx="-4.45623" dy="-5.94164"/>
<feGaussianBlur stdDeviation="1.48541"/>
<feComposite in2="hardAlpha" operator="arithmetic" k2="-1" k3="1"/>
<feColorMatrix type="matrix" values="0 0 0 0 0.898039 0 0 0 0 0.921569 0 0 0 0 0.996078 0 0 0 1 0"/>
<feBlend mode="normal" in2="shape" result="effect1_innerShadow_1344_2165"/>
</filter>
<linearGradient id="paint0_linear_1344_2165" x1="280" y1="226.638" x2="280" y2="127.116" gradientUnits="userSpaceOnUse">
<stop stop-color="white" stop-opacity="0"/>
<stop offset="1" stop-color="#C0F1EC"/>
</linearGradient>
<linearGradient id="paint1_linear_1344_2165" x1="280" y1="226.638" x2="280" y2="127.116" gradientUnits="userSpaceOnUse">
<stop stop-color="white" stop-opacity="0"/>
<stop offset="1" stop-color="#E4EFFF"/>
</linearGradient>
</defs>
</svg>
