<svg width="61" height="60" viewBox="0 0 61 60" fill="none" xmlns="http://www.w3.org/2000/svg">
<circle cx="30.5" cy="30" r="30" fill="#E6FFF8"/>
<path d="M30.8036 9.49487C41.9607 9.49487 51.0056 18.5398 51.0056 29.6969C51.0056 40.854 41.9607 49.8989 30.8036 49.8989C19.6465 49.8989 10.6016 40.854 10.6016 29.6969C10.6016 18.5398 19.6465 9.49487 30.8036 9.49487ZM39.4501 23.5742C39.3093 23.4335 39.1421 23.322 38.9582 23.246C38.7743 23.17 38.5773 23.1309 38.3783 23.1311C38.1793 23.1312 37.9823 23.1705 37.7985 23.2468C37.6147 23.3231 37.4477 23.4349 37.3071 23.5757L28.2905 32.606L24.297 28.6292C24.0116 28.3493 23.627 28.1936 23.2273 28.196C22.8275 28.1984 22.4449 28.3587 22.1628 28.6419C21.8807 28.9252 21.7219 29.3084 21.7212 29.7082C21.7204 30.108 21.8776 30.4918 22.1586 30.7762L27.2243 35.8211C27.5088 36.1045 27.8941 36.2633 28.2956 36.2627C28.6971 36.2622 29.082 36.1023 29.3657 35.8181L39.4516 25.7171C39.5922 25.5763 39.7037 25.4092 39.7797 25.2253C39.8558 25.0414 39.8948 24.8443 39.8947 24.6453C39.8945 24.4463 39.8552 24.2493 39.7789 24.0655C39.7026 23.8817 39.5909 23.7148 39.4501 23.5742Z" fill="#00C8B5"/>
<path d="M53.8329 6.96973L48.9844 12.1212" stroke="#00C8B5" stroke-width="1.81818" stroke-linecap="round"/>
<path d="M56.5594 15.1514L51.7109 16.3635" stroke="#00C8B5" stroke-width="1.81818" stroke-linecap="round"/>
<path d="M46.5604 3.63623L44.7422 8.48472" stroke="#00C8B5" stroke-width="1.81818" stroke-linecap="round"/>
</svg>
