<svg width="61" height="60" viewBox="0 0 61 60" fill="none" xmlns="http://www.w3.org/2000/svg">
<circle cx="30.5" cy="30" r="30" fill="#FFF0F2"/>
<path d="M30.8027 49.697C36.1071 49.697 41.1941 47.5899 44.9449 43.8392C48.6956 40.0884 50.8027 35.0014 50.8027 29.697C50.8027 24.3927 48.6956 19.3056 44.9449 15.5549C41.1941 11.8042 36.1071 9.69702 30.8027 9.69702C25.4984 9.69702 20.4113 11.8042 16.6606 15.5549C12.9099 19.3056 10.8027 24.3927 10.8027 29.697C10.8027 35.0014 12.9099 40.0884 16.6606 43.8392C20.4113 47.5899 25.4984 49.697 30.8027 49.697ZM30.8027 19.697C31.8418 19.697 32.6777 20.533 32.6777 21.572V30.322C32.6777 31.3611 31.8418 32.197 30.8027 32.197C29.7637 32.197 28.9277 31.3611 28.9277 30.322V21.572C28.9277 20.533 29.7637 19.697 30.8027 19.697ZM28.3027 37.197C28.3027 36.534 28.5661 35.8981 29.035 35.4293C29.5038 34.9604 30.1397 34.697 30.8027 34.697C31.4658 34.697 32.1017 34.9604 32.5705 35.4293C33.0393 35.8981 33.3027 36.534 33.3027 37.197C33.3027 37.8601 33.0393 38.4959 32.5705 38.9648C32.1017 39.4336 31.4658 39.697 30.8027 39.697C30.1397 39.697 29.5038 39.4336 29.035 38.9648C28.5661 38.4959 28.3027 37.8601 28.3027 37.197Z" fill="#E04C7E"/>
<path d="M53.8329 6.96973L48.9844 12.1212" stroke="#E04C7E" stroke-width="1.81818" stroke-linecap="round"/>
<path d="M56.5594 15.1516L51.7109 16.3637" stroke="#E04C7E" stroke-width="1.81818" stroke-linecap="round"/>
<path d="M46.5604 3.63647L44.7422 8.48496" stroke="#E04C7E" stroke-width="1.81818" stroke-linecap="round"/>
</svg>
