<svg width="280" height="158" viewBox="0 0 280 158" fill="none" xmlns="http://www.w3.org/2000/svg">
<rect width="280" height="157.5" fill="#EDF4FF"/>
<rect x="81.0955" y="44.849" width="67.5449" height="43.7035" rx="2.71799" fill="white" stroke="url(#paint0_linear_1336_2680)" stroke-width="1.81199"/>
<path d="M115 107.084C115 106.485 115.485 106 116.083 106H171.352C171.95 106 172.436 106.485 172.436 107.084V107.084C172.436 107.682 171.95 108.167 171.352 108.167H116.083C115.485 108.167 115 107.682 115 107.084V107.084Z" fill="url(#paint1_linear_1336_2680)"/>
<rect x="109.398" y="93.7931" width="29.2599" height="2.1674" rx="1.0837" fill="#C8E8EB"/>
<rect x="107.283" y="55.8632" width="78.0265" height="45.5155" rx="3.62399" fill="url(#paint2_linear_1336_2680)"/>
<path d="M153.966 69.9517C156.085 69.9517 158.117 70.865 159.616 72.4907C161.115 74.1164 161.956 76.3213 161.956 78.6204C161.956 80.9195 161.115 83.1244 159.616 84.7501C158.117 86.3759 156.085 87.2892 153.966 87.2892H151.304C151.124 87.2961 150.945 87.2636 150.777 87.1936C150.609 87.1236 150.455 87.0176 150.326 86.8819C150.196 86.7463 150.093 86.5836 150.023 86.4038C149.952 86.224 149.916 86.0306 149.916 85.8352C149.916 85.6399 149.952 85.4465 150.023 85.2667C150.093 85.0868 150.196 84.9242 150.326 84.7885C150.455 84.6528 150.609 84.5468 150.777 84.4769C150.945 84.4069 151.124 84.3744 151.304 84.3813L153.964 84.3796C155.372 84.3798 156.723 83.7732 157.719 82.6931C158.715 81.6131 159.274 80.1481 159.274 78.6204C159.275 77.864 159.137 77.115 158.871 76.4161C158.604 75.7172 158.213 75.0822 157.72 74.5472C156.724 73.4668 155.374 72.8598 153.966 72.8595L151.306 72.8612C150.952 72.8584 150.614 72.7039 150.364 72.4316C150.115 72.1593 149.975 71.7911 149.975 71.4073C149.975 71.0235 150.114 70.6552 150.363 70.3825C150.612 70.1099 150.951 69.955 151.304 69.9517H153.966ZM153.909 78.6204C153.909 79.0059 153.767 79.3756 153.516 79.6482C153.265 79.9209 152.924 80.0741 152.569 80.0743L139.402 80.0761C139.046 80.0761 138.705 79.9227 138.453 79.6497C138.202 79.3767 138.06 79.0065 138.06 78.6204C138.06 78.2344 138.202 77.8641 138.453 77.5911C138.705 77.3181 139.046 77.1648 139.402 77.1648L152.57 77.1682C152.926 77.1684 153.266 77.3217 153.518 77.5943C153.769 77.8669 153.91 78.2366 153.91 78.6221L153.909 78.6204ZM142.005 71.4056C142.005 71.7911 141.864 72.1608 141.612 72.4334C141.361 72.706 141.02 72.8593 140.665 72.8595L138.005 72.8612C136.597 72.8612 135.246 73.4682 134.25 74.5486C133.254 75.6289 132.695 77.0942 132.695 78.6221C132.695 80.15 133.254 81.6153 134.25 82.6957C135.246 83.7761 136.597 84.383 138.005 84.383L140.663 84.3796C141.019 84.3791 141.361 84.5321 141.612 84.8047C141.864 85.0774 142.006 85.4475 142.007 85.8335C142.007 86.2196 141.866 86.59 141.615 86.8633C141.363 87.1366 141.022 87.2904 140.666 87.2909H138.005C135.885 87.2911 133.853 86.3779 132.354 84.7522C130.855 83.1265 130.013 80.9215 130.013 78.6221C130.012 76.3228 130.854 74.1176 132.353 72.4915C133.851 70.8655 135.884 69.9519 138.003 69.9517H140.665C140.841 69.9516 141.016 69.9891 141.178 70.0622C141.341 70.1354 141.489 70.2426 141.614 70.3778C141.738 70.513 141.837 70.6735 141.905 70.8501C141.972 71.0268 142.007 71.2161 142.007 71.4073L142.005 71.4056Z" fill="white"/>
<path d="M180.448 88.9221L180.445 88.9216C180.033 88.7122 179.572 88.6118 179.114 88.6317C178.656 88.6517 178.219 88.7913 177.854 89.0346C177.488 89.278 177.208 89.6154 177.045 90.0087C176.882 90.402 176.842 90.8354 176.931 91.26L176.932 91.2649L176.934 91.2745L176.942 91.3132L176.974 91.4617L177.094 92.0263L177.526 94.0513C178.55 98.8608 179.573 103.67 180.595 108.48L180.723 109.082L180.757 109.249L180.767 109.298C180.758 109.594 180.842 109.89 181.008 110.151C181.173 110.411 181.415 110.625 181.702 110.766C181.989 110.908 182.31 110.97 182.626 110.946C182.941 110.922 183.238 110.813 183.48 110.632C183.625 110.539 183.751 110.424 183.854 110.291C183.947 110.17 184.023 110.029 184.096 109.899L184.098 109.893L186.36 105.817L187.838 103.153L188.322 102.282L188.327 102.275L188.339 102.274L189.398 102.116L192.635 101.632C194.975 101.28 197.415 100.913 197.58 100.879L197.659 100.865C197.849 100.83 198.189 100.772 198.483 100.576C198.654 100.462 198.798 100.316 198.907 100.147C199.015 99.9782 199.086 99.7892 199.115 99.5912C199.143 99.3931 199.13 99.1897 199.074 98.9927C199.019 98.7957 198.923 98.6089 198.791 98.4431L198.777 98.4251C198.742 98.3771 198.637 98.2363 198.515 98.1253C198.345 97.9767 198.151 97.8547 197.94 97.7645L197.937 97.764L197.882 97.736L197.713 97.6526L197.115 97.353L195.082 96.3283C191.098 94.3155 187.115 92.3001 183.133 90.2821L181.182 89.2962L180.638 89.0167L180.492 88.9467L180.456 88.9251L180.448 88.9221Z" fill="white"/>
<defs>
<linearGradient id="paint0_linear_1336_2680" x1="93.1939" y1="48.2101" x2="120.519" y2="95.5258" gradientUnits="userSpaceOnUse">
<stop stop-color="#B8D0F0"/>
<stop offset="1" stop-color="#C8C9EB"/>
</linearGradient>
<linearGradient id="paint1_linear_1336_2680" x1="115" y1="107.084" x2="115.331" y2="111.435" gradientUnits="userSpaceOnUse">
<stop stop-color="#CEDFFF"/>
<stop offset="1" stop-color="#A6BEF9"/>
</linearGradient>
<linearGradient id="paint2_linear_1336_2680" x1="121.913" y1="60.1302" x2="147.547" y2="110.067" gradientUnits="userSpaceOnUse">
<stop stop-color="#CEDFFF"/>
<stop offset="1" stop-color="#A6BEF9"/>
</linearGradient>
</defs>
</svg>
