<svg width="280" height="158" viewBox="0 0 280 158" fill="none" xmlns="http://www.w3.org/2000/svg">
<rect width="280" height="157.5" fill="#EEEEF0"/>
<rect x="81.15" y="43.1495" width="71.2702" height="45.9808" rx="3.44856" fill="#F5F5F5" stroke="#DCDCDC" stroke-width="2.29904"/>
<rect x="116.411" y="107.521" width="60.9245" height="2.29904" rx="1.14952" fill="#DCDCDC"/>
<rect x="130.47" y="94.8779" width="31.037" height="2.29904" rx="1.14952" fill="#C8E8EB"/>
<rect x="109.232" y="54.644" width="82.7654" height="48.2798" rx="4.59808" fill="#DBDBDB"/>
<path d="M158.263 69.5879C160.302 69.5879 162.258 70.5567 163.7 72.2811C165.141 74.0056 165.951 76.3444 165.951 78.7831C165.951 81.2219 165.141 83.5607 163.7 85.2852C162.258 87.0096 160.302 87.9784 158.263 87.9784H155.702C155.529 87.9857 155.356 87.9512 155.194 87.877C155.033 87.8028 154.885 87.6904 154.76 87.5464C154.636 87.4025 154.537 87.23 154.469 87.0393C154.401 86.8485 154.366 86.6434 154.366 86.4361C154.366 86.2289 154.401 86.0238 154.469 85.833C154.537 85.6423 154.636 85.4698 154.76 85.3259C154.885 85.1819 155.033 85.0695 155.194 84.9953C155.356 84.9211 155.529 84.8866 155.702 84.8939L158.261 84.8921C159.616 84.8923 160.916 84.2488 161.874 83.1032C162.832 81.9575 163.371 80.4036 163.371 78.7831C163.371 77.9808 163.239 77.1863 162.982 76.4449C162.726 75.7036 162.349 75.03 161.875 74.4626C160.917 73.3166 159.618 72.6726 158.263 72.6724L155.704 72.6742C155.363 72.6711 155.038 72.5073 154.798 72.2184C154.558 71.9296 154.423 71.5391 154.423 71.1319C154.423 70.7248 154.557 70.3341 154.797 70.0449C155.036 69.7557 155.362 69.5914 155.702 69.5879H158.263ZM158.208 78.7831C158.208 79.1921 158.072 79.5842 157.83 79.8734C157.588 80.1626 157.261 80.3251 156.919 80.3254L144.25 80.3272C143.907 80.3272 143.579 80.1645 143.337 79.875C143.095 79.5854 142.959 79.1926 142.959 78.7831C142.959 78.3736 143.095 77.9809 143.337 77.6913C143.579 77.4018 143.907 77.2391 144.25 77.2391L156.92 77.2427C157.262 77.243 157.59 77.4055 157.832 77.6947C158.074 77.9839 158.209 78.376 158.21 78.785L158.208 78.7831ZM146.754 71.1301C146.754 71.5391 146.618 71.9312 146.376 72.2204C146.135 72.5096 145.807 72.6721 145.465 72.6724L142.905 72.6742C141.55 72.6742 140.251 73.318 139.292 74.464C138.334 75.61 137.796 77.1643 137.796 78.785C137.796 80.4056 138.334 81.9599 139.292 83.1059C140.251 84.2519 141.55 84.8957 142.905 84.8957L145.463 84.8921C145.806 84.8916 146.134 85.0538 146.377 85.343C146.619 85.6323 146.755 86.0248 146.756 86.4343C146.756 86.8438 146.621 87.2368 146.379 87.5267C146.137 87.8166 145.809 87.9797 145.466 87.9802H142.905C140.866 87.9804 138.91 87.0118 137.468 85.2874C136.026 83.5629 135.216 81.2239 135.215 78.785C135.215 76.346 136.025 74.0068 137.467 72.282C138.909 70.5572 140.865 69.5881 142.904 69.5879H145.465C145.634 69.5878 145.802 69.6276 145.959 69.7052C146.116 69.7828 146.258 69.8965 146.378 70.0399C146.498 70.1833 146.593 70.3535 146.658 70.5409C146.723 70.7283 146.756 70.9292 146.756 71.132L146.754 71.1301Z" fill="white"/>
<path d="M181.006 89.7111L181.003 89.7105C180.606 89.4884 180.162 89.3819 179.721 89.4031C179.281 89.4243 178.861 89.5723 178.509 89.8304C178.157 90.0885 177.887 90.4464 177.73 90.8636C177.574 91.2808 177.536 91.7406 177.621 92.191L177.622 92.1961L177.624 92.2064L177.631 92.2474L177.663 92.4049L177.778 93.0038L178.194 95.1518C179.179 100.253 180.163 105.355 181.146 110.457L181.269 111.095L181.303 111.273L181.312 111.324C181.303 111.638 181.384 111.953 181.544 112.229C181.703 112.506 181.935 112.732 182.212 112.882C182.488 113.032 182.797 113.098 183.1 113.073C183.404 113.047 183.69 112.931 183.923 112.739C184.062 112.641 184.184 112.519 184.282 112.378C184.372 112.25 184.445 112.1 184.515 111.962L184.517 111.955L186.694 107.632L188.116 104.806L188.582 103.883L188.586 103.875L188.598 103.874L189.617 103.707L192.732 103.193C194.983 102.82 197.331 102.431 197.49 102.394L197.566 102.379C197.749 102.343 198.075 102.28 198.358 102.073C198.523 101.952 198.662 101.797 198.766 101.618C198.871 101.439 198.939 101.238 198.966 101.028C198.994 100.818 198.98 100.602 198.927 100.393C198.874 100.184 198.781 99.9862 198.655 99.8103L198.642 99.7912C198.608 99.7403 198.506 99.5909 198.389 99.4733C198.226 99.3156 198.039 99.1862 197.836 99.0905L197.833 99.0899L197.781 99.0602L197.618 98.9719L197.042 98.6541L195.086 97.567C191.252 95.432 187.42 93.2942 183.589 91.1537L181.712 90.1078L181.188 89.8114L181.048 89.7371L181.013 89.7142L181.006 89.7111Z" fill="white"/>
</svg>
