<svg width="376" height="212" viewBox="0 0 376 212" fill="none" xmlns="http://www.w3.org/2000/svg">
<g clip-path="url(#clip0_360_2033)">
<path opacity="0.5" d="M330 209.5C330 171.972 315.092 135.981 288.556 109.444C262.019 82.908 226.028 68 188.5 68C150.972 68 114.981 82.908 88.4444 109.444C61.908 135.981 47 171.972 47 209.5L188.5 209.5H330Z" fill="#3E72F5" fill-opacity="0.2"/>
<path opacity="0.47" d="M291 206.5C291 179.846 280.412 154.283 261.564 135.436C242.717 116.588 217.154 106 190.5 106C163.846 106 138.283 116.588 119.436 135.436C100.588 154.283 90 179.846 90 206.5L190.5 206.5H291Z" fill="#3E72F5" fill-opacity="0.15"/>
<rect y="204.354" width="376" height="5.39766" rx="2.69883" fill="#535D6D"/>
<circle cx="313.167" cy="147.253" r="2.88956" fill="#96B3FF"/>
<circle cx="313.165" cy="157.076" r="1.8069" fill="#96B3FF"/>
<circle cx="313.166" cy="165.357" r="1.34621" fill="#96B3FF"/>
<circle cx="313.167" cy="172.791" r="0.960094" fill="#96B3FF"/>
<path d="M255.445 197.239H260.957C264.878 197.239 268.057 200.418 268.057 204.34V204.34" stroke="#484848" stroke-width="1.70909"/>
<mask id="path-9-inside-1_360_2033" fill="white">
<rect x="28.0762" y="139.09" width="102.52" height="61.2358" rx="2.41403"/>
</mask>
<rect x="28.0762" y="139.09" width="102.52" height="61.2358" rx="2.41403" fill="#F1F3F7" stroke="#1C294B" stroke-width="6.83636" mask="url(#path-9-inside-1_360_2033)"/>
<g clip-path="url(#clip1_360_2033)">
<path d="M73.085 162.423C74.1685 162.423 75.2491 162.547 76.3047 162.791C77.2892 163.002 78.2094 163.444 78.9883 164.082L76.1133 181.363C75.9705 182.255 75.7096 183.124 75.3369 183.946C74.9854 184.719 74.473 185.409 73.834 185.968C73.1376 186.565 72.3244 187.01 71.4463 187.275C70.3376 187.605 69.1839 187.76 68.0273 187.736C67.1057 187.749 66.1873 187.626 65.3018 187.37C64.5575 187.161 63.8654 186.797 63.2725 186.301C62.7419 185.85 62.3392 185.266 62.1045 184.61C62.0858 184.56 62.088 184.502 62.0723 184.451C63.586 183.968 65.1264 183.588 66.4102 183.306C66.4923 183.532 66.6361 183.731 66.8252 183.88C67.2655 184.221 67.8086 184.402 68.3652 184.393C69.0957 184.448 69.8228 184.25 70.4248 183.833C70.9232 183.37 71.2358 182.741 71.3027 182.064L71.5986 180.278C70.8431 180.475 70.0648 180.572 69.2842 180.567C68.2532 180.597 67.227 180.417 66.2676 180.038C65.5115 179.73 64.8452 179.237 64.3311 178.603C63.8424 177.971 63.5217 177.224 63.4004 176.435C63.2559 175.531 63.2661 174.609 63.4297 173.709L64.2354 168.863C64.3772 167.998 64.6754 167.166 65.1152 166.407C65.5713 165.626 66.1717 164.938 66.8848 164.381C67.6837 163.765 68.5825 163.29 69.542 162.979C70.6871 162.612 71.8826 162.425 73.085 162.423ZM72.1162 166.186C71.3938 166.176 70.6847 166.382 70.0801 166.777C69.4115 167.287 68.9916 168.058 68.9258 168.896L68.126 173.712C67.954 174.41 68.0012 175.145 68.2627 175.815C68.506 176.305 69.0717 176.549 69.9541 176.549C70.6223 176.597 71.2799 176.36 71.7637 175.897C72.2312 175.334 72.5393 174.657 72.6562 173.935L73.8994 166.442C73.3184 166.281 72.7191 166.195 72.1162 166.186Z" fill="#A2A6B1"/>
<path d="M83.1921 156.209L79.1582 180.473H83.9151L87.949 156.209H83.1921Z" fill="#A2A6B1"/>
<path d="M91.9259 163.966C92.9015 163.95 93.8641 163.74 94.7574 163.348L94.7654 163.343L94.8341 162.938H94.8261L95.1957 160.714L95.4172 159.381H90.7235L90.5019 160.714L90.0186 163.619L90.0266 163.622C90.6364 163.84 91.2782 163.957 91.9259 163.966L91.9259 163.966Z" fill="#A2A6B1"/>
<path d="M91.9154 180.473L94.3928 165.579L94.3821 165.582C93.5843 165.819 92.757 165.941 91.9249 165.946C91.1688 165.946 90.4157 165.836 89.6903 165.619L89.2663 168.157L87.2207 180.471L91.9154 180.473Z" fill="#A2A6B1"/>
<path d="M82.2669 182.583C81.924 182.451 81.5575 182.392 81.1906 182.409H81.1424C81.0858 182.409 80.9777 182.413 80.8202 182.423C80.6627 182.432 80.4814 182.454 80.2764 182.486C80.0713 182.518 79.8552 182.563 79.6286 182.621C79.4069 182.677 79.1922 182.758 78.9885 182.862C78.9758 182.939 78.9581 183.034 78.938 183.146C78.9178 183.259 78.8965 183.367 78.88 183.47L78.8183 183.836L78.1484 187.869H79.5694L80.2393 183.836C80.3784 183.771 80.5272 183.729 80.6798 183.711C80.8158 183.698 80.9058 183.691 80.9499 183.691C81.0584 183.686 81.1662 183.709 81.2633 183.758C81.342 183.801 81.4058 183.867 81.4464 183.946C81.4887 184.034 81.5118 184.13 81.514 184.227C81.5179 184.342 81.51 184.456 81.4903 184.569L80.9416 187.869H82.3716L82.9203 184.569C82.9677 184.293 82.9917 184.014 82.992 183.735C82.9965 183.495 82.9372 183.259 82.8202 183.05C82.6899 182.84 82.4961 182.676 82.2669 182.583V182.583Z" fill="#A2A6B1"/>
<path d="M86.1271 182.412C86.4593 182.398 86.7903 182.462 87.0929 182.6C87.1292 182.619 87.1548 182.646 87.1876 182.666C87.3712 182.771 87.5263 182.919 87.6388 183.098C87.6935 183.193 87.7369 183.295 87.7677 183.4C87.8101 183.537 87.8352 183.678 87.8429 183.82C87.8574 184.108 87.8402 184.396 87.7921 184.68L87.6408 185.586H84.8468C84.8239 185.721 84.8044 185.868 84.7843 186.024C84.764 186.17 84.7665 186.319 84.7921 186.464C84.8128 186.591 84.8714 186.708 84.9601 186.801C85.0745 186.901 85.225 186.949 85.3761 186.936C85.4901 186.939 85.6039 186.919 85.7101 186.878C85.7917 186.844 85.867 186.796 85.9328 186.737C85.9892 186.687 86.0373 186.628 86.0763 186.564C86.1066 186.51 86.1341 186.463 86.1583 186.413C86.5524 186.509 86.9409 186.627 87.3214 186.767C87.2858 186.86 87.2453 186.951 87.1994 187.04C87.0796 187.231 86.9252 187.398 86.7443 187.532C86.548 187.674 86.3271 187.779 86.0929 187.841C85.8037 187.916 85.5058 187.951 85.2072 187.946C84.881 187.959 84.5564 187.89 84.2638 187.745C84.031 187.623 83.8362 187.439 83.7003 187.214C83.5675 186.983 83.4858 186.726 83.4621 186.461C83.4331 186.168 83.4442 185.873 83.4943 185.583L83.6896 184.406C83.7349 184.125 83.8238 183.851 83.9533 183.597C84.076 183.358 84.2429 183.143 84.4445 182.965C84.6559 182.783 84.9012 182.644 85.1662 182.557C85.4762 182.455 85.801 182.407 86.1271 182.412ZM85.9601 183.423C85.7278 183.409 85.501 183.499 85.3419 183.669C85.1762 183.883 85.0726 184.138 85.0431 184.407L84.9972 184.678H86.5128L86.5324 184.562C86.5541 184.439 86.5705 184.313 86.5831 184.182C86.5956 184.059 86.5872 183.934 86.5578 183.815C86.5305 183.704 86.468 183.605 86.38 183.533C86.2568 183.45 86.1085 183.411 85.9601 183.423Z" fill="#A2A6B1"/>
<path d="M90.9516 186.598C90.8694 186.621 90.784 186.631 90.6988 186.628C90.6089 186.626 90.5193 186.618 90.4307 186.603C90.3317 186.589 90.2366 186.555 90.1515 186.502C90.0664 186.449 89.9969 186.375 89.9501 186.286C89.896 186.166 89.8831 186.032 89.9133 185.905L90.2517 183.869L90.2075 183.877C90.8307 183.639 91.3379 183.169 91.6233 182.566H90.4694L90.6492 181.487H89.2192L88.8081 183.956L88.4845 185.904C88.4401 186.155 88.4429 186.412 88.4925 186.662C88.5389 186.899 88.6449 187.12 88.8005 187.304C88.9745 187.503 89.1941 187.657 89.4406 187.752C89.705 187.851 89.9843 187.903 90.2663 187.908C90.5112 187.513 90.7353 187.105 90.9378 186.687L90.9516 186.598Z" fill="#A2A6B1"/>
</g>
<rect x="17.0967" y="199.422" width="123.054" height="4.07745" rx="0.854545" fill="#D9D9D9" stroke="#D9D9D9" stroke-width="1.70909"/>
<path d="M67.4365 198.568H91.6769V200.075C91.6769 201.019 90.9117 201.784 89.9678 201.784H69.1456C68.2017 201.784 67.4365 201.019 67.4365 200.075V198.568Z" fill="#939393"/>
<path d="M261.71 177.785H265.543C268.916 177.785 271.649 180.518 271.649 183.891V183.891C271.649 187.263 274.383 189.997 277.755 189.997H288.745" stroke="#484848" stroke-width="1.88" stroke-linecap="round"/>
<path d="M247.246 179.176C247.246 178.984 247.406 178.829 247.604 178.829H248.335C248.533 178.829 248.693 178.674 248.693 178.482L248.693 177.073C248.693 176.881 248.533 176.726 248.335 176.726H247.604C247.406 176.726 247.246 176.57 247.246 176.379V173.651C247.246 173.459 247.406 173.304 247.604 173.304H254.887C255.085 173.304 255.245 173.459 255.245 173.651V176.533C255.245 176.652 255.344 176.749 255.467 176.749C255.59 176.749 255.689 176.652 255.689 176.533V173.651C255.689 173.459 255.85 173.304 256.047 173.304H256.664C256.862 173.304 257.022 173.459 257.022 173.651V176.533C257.022 176.652 257.122 176.749 257.245 176.749C257.367 176.749 257.467 176.652 257.467 176.533V174.816C257.467 174.624 257.627 174.469 257.825 174.469L258.442 174.469C258.64 174.469 258.8 174.624 258.8 174.816V176.533C258.8 176.652 258.899 176.749 259.022 176.749C259.145 176.749 259.244 176.652 259.244 176.533V175.399C259.244 175.207 259.405 175.052 259.602 175.052H260.219C260.417 175.052 260.577 175.207 260.577 175.399V176.402C260.577 176.593 260.738 176.749 260.936 176.749L262.635 176.749V178.902H260.936C260.738 178.902 260.577 179.057 260.577 179.249V180.277C260.577 180.469 260.417 180.624 260.219 180.624H259.602C259.405 180.624 259.244 180.469 259.244 180.277V179.117C259.244 178.998 259.145 178.902 259.022 178.902C258.899 178.902 258.8 178.998 258.8 179.117V180.708C258.8 180.899 258.64 181.055 258.442 181.055H257.825C257.627 181.055 257.467 180.899 257.467 180.708V179.117C257.467 178.998 257.367 178.902 257.245 178.902C257.122 178.902 257.022 178.998 257.022 179.117V181.569C257.022 181.761 256.862 181.916 256.664 181.916H256.047C255.85 181.916 255.689 181.761 255.689 181.569V179.117C255.689 178.998 255.59 178.902 255.467 178.902C255.344 178.902 255.245 178.998 255.245 179.117V181.569C255.245 181.761 255.085 181.916 254.887 181.916H247.604C247.406 181.916 247.246 181.761 247.246 181.569V179.176Z" fill="#484848"/>
<rect x="331.563" y="150.635" width="5.12727" height="32.4727" rx="0.9208" fill="#5078DB"/>
<rect x="292.255" y="150.4" width="5.12727" height="33.6544" rx="0.9208" fill="#5078DB"/>
<rect x="329.854" y="179.455" width="8.54545" height="3.41818" rx="0.512727" fill="#2852BC"/>
<rect x="290.546" y="179.455" width="8.54545" height="3.41818" rx="0.512727" fill="#2852BC"/>
<rect x="281.709" y="184.709" width="63.2364" height="18.109" rx="2.29091" fill="white" stroke="#5078DB" stroke-width="3.41818"/>
<circle cx="304.233" cy="194.111" r="2.12903" fill="#2656D0"/>
<circle cx="313.618" cy="194.111" r="2.12903" fill="#2656D0"/>
<circle cx="323.003" cy="194.111" r="2.12903" fill="#2656D0"/>
<path d="M249.836 194.02H253.392C253.58 194.02 253.733 194.173 253.733 194.362V199.882C253.733 200.071 253.58 200.224 253.392 200.224H249.836V194.02Z" fill="#484848"/>
<path d="M253.733 195.704H255.104C255.293 195.704 255.446 195.857 255.446 196.046V198.198C255.446 198.386 255.293 198.539 255.104 198.539H253.733V195.704Z" fill="#484848"/>
<rect x="181.163" y="162.364" width="69.8303" height="41.9345" rx="3.70747" fill="#B4B4B4"/>
<path d="M205.084 184.359H202.656C202.647 184.358 202.639 184.359 202.63 184.362C202.622 184.365 202.614 184.369 202.608 184.376C202.602 184.382 202.597 184.389 202.594 184.398C202.591 184.406 202.59 184.415 202.591 184.424V185.304C202.59 185.313 202.591 185.322 202.594 185.33C202.597 185.339 202.602 185.346 202.608 185.352C202.614 185.359 202.622 185.363 202.63 185.366C202.639 185.369 202.647 185.37 202.656 185.369H203.925V186.88C203.618 186.957 203.302 186.992 202.986 186.984C202.677 187.013 202.365 186.975 202.072 186.872C201.779 186.768 201.512 186.602 201.289 186.385C201.067 186.168 200.893 185.904 200.782 185.613C200.67 185.322 200.622 185.01 200.642 184.699C200.642 183.29 201.581 182.42 203.089 182.42C203.561 182.406 204.03 182.491 204.468 182.668L204.604 182.726C204.621 182.733 204.64 182.733 204.656 182.726C204.675 182.72 204.682 182.707 204.688 182.687L204.967 181.807C204.972 181.792 204.972 181.776 204.966 181.762C204.96 181.747 204.949 181.735 204.935 181.729L204.831 181.683C204.282 181.473 203.697 181.371 203.109 181.384C200.876 181.384 199.361 182.733 199.354 184.736C199.34 185.186 199.42 185.634 199.588 186.051C199.757 186.468 200.01 186.845 200.332 187.158C201.056 187.763 201.982 188.069 202.922 188.014C203.63 188.01 204.334 187.893 205.006 187.669L205.09 187.644C205.103 187.64 205.115 187.632 205.123 187.622C205.131 187.611 205.136 187.598 205.136 187.585V184.428C205.139 184.42 205.14 184.411 205.139 184.403C205.138 184.394 205.134 184.386 205.129 184.379C205.124 184.372 205.117 184.366 205.109 184.363C205.101 184.359 205.093 184.358 205.084 184.359Z" fill="white"/>
<path d="M211.423 186.91H208.68V181.507C208.681 181.498 208.68 181.489 208.677 181.481C208.674 181.472 208.669 181.465 208.663 181.459C208.657 181.452 208.649 181.448 208.641 181.445C208.633 181.442 208.624 181.441 208.615 181.442H207.502C207.493 181.441 207.484 181.442 207.476 181.445C207.467 181.448 207.46 181.452 207.453 181.459C207.447 181.465 207.442 181.472 207.44 181.481C207.437 181.489 207.436 181.498 207.437 181.507V187.88C207.436 187.889 207.437 187.898 207.44 187.906C207.442 187.915 207.447 187.922 207.453 187.928C207.46 187.935 207.467 187.939 207.476 187.942C207.484 187.945 207.493 187.946 207.502 187.945H211.425C211.434 187.946 211.443 187.945 211.451 187.942C211.459 187.939 211.467 187.935 211.473 187.928C211.479 187.922 211.484 187.915 211.487 187.906C211.49 187.898 211.491 187.889 211.49 187.88V186.968C211.488 186.952 211.48 186.936 211.468 186.926C211.455 186.915 211.439 186.909 211.423 186.91Z" fill="white"/>
<path d="M217.923 180.857C217.835 180.854 217.747 180.87 217.665 180.903C217.583 180.936 217.509 180.985 217.446 181.048C217.384 181.111 217.335 181.186 217.302 181.268C217.269 181.351 217.254 181.439 217.256 181.528C217.253 181.614 217.268 181.701 217.3 181.782C217.331 181.862 217.379 181.936 217.439 181.998C217.5 182.06 217.572 182.109 217.652 182.142C217.731 182.176 217.817 182.193 217.903 182.192C217.997 182.194 218.09 182.178 218.176 182.143C218.263 182.108 218.342 182.056 218.408 181.99C218.467 181.929 218.512 181.856 218.542 181.777C218.572 181.697 218.586 181.612 218.583 181.528C218.586 181.439 218.57 181.352 218.538 181.27C218.506 181.187 218.458 181.113 218.396 181.05C218.334 180.987 218.26 180.938 218.179 180.905C218.098 180.871 218.011 180.855 217.923 180.857Z" fill="white"/>
<path d="M218.479 183.173H217.359C217.35 183.172 217.342 183.173 217.333 183.176C217.325 183.179 217.317 183.184 217.311 183.19C217.305 183.196 217.3 183.204 217.297 183.212C217.294 183.221 217.293 183.23 217.294 183.238V187.886C217.293 187.895 217.294 187.904 217.297 187.913C217.3 187.921 217.305 187.929 217.311 187.935C217.317 187.941 217.325 187.946 217.333 187.949C217.342 187.952 217.35 187.953 217.359 187.952H218.479C218.488 187.953 218.497 187.952 218.505 187.949C218.513 187.946 218.521 187.941 218.527 187.935C218.533 187.929 218.538 187.921 218.541 187.913C218.544 187.904 218.545 187.895 218.544 187.886V183.238C218.545 183.23 218.544 183.221 218.541 183.212C218.538 183.204 218.533 183.196 218.527 183.19C218.521 183.184 218.513 183.179 218.505 183.176C218.497 183.173 218.488 183.172 218.479 183.173Z" fill="white"/>
<path d="M225.601 181.449H224.539C224.53 181.448 224.522 181.449 224.513 181.451C224.505 181.454 224.497 181.459 224.491 181.465C224.485 181.472 224.48 181.479 224.477 181.488C224.474 181.496 224.473 181.505 224.474 181.514V184.202C224.474 184.723 224.481 185.283 224.507 185.875C224.28 185.478 224.021 185.068 223.73 184.638L221.587 181.475C221.581 181.467 221.573 181.46 221.564 181.455C221.555 181.451 221.545 181.449 221.535 181.449H220.402C220.393 181.448 220.384 181.449 220.376 181.452C220.368 181.455 220.36 181.46 220.354 181.466C220.348 181.472 220.343 181.48 220.34 181.488C220.337 181.497 220.336 181.505 220.337 181.514V187.887C220.336 187.896 220.337 187.905 220.34 187.913C220.343 187.921 220.348 187.929 220.354 187.935C220.36 187.941 220.368 187.946 220.376 187.949C220.384 187.952 220.393 187.953 220.402 187.952H221.464C221.472 187.953 221.481 187.952 221.49 187.949C221.498 187.946 221.505 187.941 221.512 187.935C221.518 187.929 221.523 187.921 221.526 187.913C221.528 187.905 221.529 187.896 221.528 187.887V185.145C221.528 184.462 221.522 183.908 221.503 183.394C221.736 183.798 222.021 184.247 222.364 184.755L224.487 187.924C224.493 187.932 224.501 187.939 224.51 187.944C224.519 187.948 224.529 187.95 224.539 187.95H225.601C225.61 187.951 225.618 187.95 225.627 187.947C225.635 187.944 225.643 187.939 225.649 187.933C225.655 187.927 225.66 187.919 225.663 187.911C225.666 187.902 225.667 187.893 225.666 187.885V181.514C225.667 181.505 225.666 181.496 225.663 181.488C225.66 181.479 225.655 181.472 225.649 181.465C225.643 181.459 225.635 181.454 225.627 181.451C225.618 181.449 225.61 181.448 225.601 181.449Z" fill="white"/>
<path d="M229.531 183.077C229.201 183.071 228.874 183.135 228.57 183.263C228.267 183.392 227.993 183.582 227.766 183.823C227.539 184.063 227.365 184.349 227.254 184.661C227.144 184.973 227.099 185.305 227.122 185.636C227.122 187.103 228.115 188.041 229.641 188.041C230.204 188.056 230.765 187.958 231.292 187.755L231.389 187.716C231.403 187.71 231.416 187.699 231.423 187.684C231.43 187.67 231.432 187.653 231.428 187.638L231.221 186.824C231.218 186.816 231.214 186.808 231.208 186.801C231.203 186.794 231.196 186.789 231.189 186.785C231.172 186.778 231.153 186.778 231.137 186.785L230.994 186.843C230.603 186.999 230.184 187.072 229.764 187.058C229.425 187.092 229.087 186.99 228.822 186.774C228.558 186.558 228.389 186.246 228.353 185.906H231.577C231.593 185.905 231.608 185.899 231.62 185.888C231.632 185.877 231.64 185.863 231.642 185.847L231.661 185.704C231.679 185.585 231.688 185.466 231.687 185.346C231.68 184.295 231.117 183.077 229.531 183.077ZM228.385 184.946C228.432 184.69 228.566 184.459 228.763 184.291C228.959 184.122 229.208 184.027 229.466 184.021C229.715 184.007 229.959 184.092 230.146 184.256C230.325 184.443 230.433 184.687 230.45 184.946L228.385 184.946Z" fill="white"/>
<path d="M235.675 183.174H234.508V181.937C234.509 181.927 234.507 181.917 234.502 181.907C234.498 181.898 234.491 181.89 234.482 181.885C234.475 181.878 234.465 181.873 234.455 181.871C234.445 181.868 234.434 181.869 234.424 181.872L233.323 182.145C233.309 182.149 233.296 182.158 233.287 182.169C233.278 182.181 233.272 182.195 233.271 182.21V183.174H232.604C232.596 183.173 232.587 183.174 232.578 183.177C232.57 183.18 232.563 183.184 232.556 183.191C232.55 183.197 232.545 183.205 232.542 183.213C232.54 183.221 232.539 183.23 232.54 183.239V184.092C232.539 184.1 232.54 184.109 232.542 184.118C232.545 184.126 232.55 184.134 232.556 184.14C232.563 184.146 232.57 184.151 232.578 184.154C232.587 184.157 232.596 184.158 232.604 184.157H233.278V186.37C233.253 186.597 233.274 186.826 233.339 187.044C233.405 187.262 233.514 187.465 233.66 187.639C233.802 187.776 233.971 187.882 234.156 187.951C234.341 188.019 234.537 188.048 234.734 188.037C235.017 188.043 235.3 188.001 235.569 187.913L235.653 187.881C235.666 187.876 235.677 187.867 235.684 187.855C235.691 187.843 235.694 187.829 235.692 187.815L235.64 186.976C235.64 186.967 235.638 186.958 235.633 186.95C235.629 186.942 235.622 186.935 235.615 186.93C235.6 186.919 235.581 186.914 235.563 186.917L235.408 186.956C235.261 186.989 235.111 187.004 234.961 187.002C234.735 187.002 234.515 186.95 234.515 186.331V184.144H235.682C235.691 184.145 235.699 184.144 235.708 184.141C235.716 184.138 235.724 184.133 235.73 184.127C235.736 184.121 235.741 184.113 235.744 184.105C235.747 184.096 235.748 184.088 235.747 184.079V183.226C235.741 183.211 235.732 183.198 235.719 183.189C235.706 183.18 235.691 183.174 235.675 183.174Z" fill="white"/>
<path d="M213.999 185.44C214.378 185.44 214.685 185.131 214.685 184.749C214.685 184.368 214.378 184.059 213.999 184.059C213.62 184.059 213.313 184.368 213.313 184.749C213.313 185.131 213.62 185.44 213.999 185.44Z" fill="white"/>
<path d="M220.726 178.67C220.746 178.65 220.76 178.627 220.769 178.601C220.778 178.575 220.781 178.547 220.777 178.52C220.773 178.493 220.763 178.467 220.747 178.444C220.732 178.422 220.711 178.403 220.687 178.39L220.564 178.318C219.758 177.849 218.844 177.602 217.913 177.602C216.982 177.602 216.067 177.849 215.261 178.318L215.145 178.39C215.121 178.403 215.1 178.422 215.085 178.444C215.069 178.467 215.059 178.493 215.055 178.52C215.051 178.547 215.054 178.575 215.063 178.601C215.071 178.627 215.086 178.65 215.106 178.67L215.481 179.047C215.508 179.076 215.544 179.094 215.583 179.099C215.622 179.103 215.661 179.094 215.694 179.073C216.367 178.68 217.131 178.474 217.909 178.474C218.686 178.474 219.45 178.68 220.123 179.073H220.129C220.163 179.091 220.202 179.099 220.24 179.094C220.278 179.09 220.314 179.073 220.343 179.047L220.726 178.67Z" fill="white"/>
<path d="M219.547 179.568C219.047 179.291 218.485 179.146 217.914 179.145C217.343 179.144 216.781 179.287 216.279 179.561C216.256 179.575 216.237 179.594 216.223 179.617C216.208 179.639 216.199 179.665 216.195 179.691C216.194 179.732 216.208 179.772 216.234 179.802L216.649 180.219C216.674 180.245 216.707 180.263 216.743 180.27C216.779 180.277 216.816 180.273 216.849 180.258C217.18 180.103 217.54 180.023 217.905 180.024C218.271 180.025 218.633 180.105 218.966 180.258C219 180.274 219.037 180.278 219.073 180.271C219.109 180.264 219.142 180.246 219.167 180.219L219.568 179.815C219.584 179.799 219.596 179.779 219.604 179.758C219.611 179.737 219.615 179.714 219.614 179.691V179.679C219.615 179.656 219.609 179.633 219.597 179.613C219.585 179.593 219.568 179.578 219.547 179.568Z" fill="white"/>
<ellipse cx="217.293" cy="200.335" rx="1.03327" ry="1.02701" fill="white"/>
<circle cx="313" cy="129" r="10" fill="#96B3FF"/>
<g clip-path="url(#clip2_360_2033)">
<path d="M312.998 122.026C316.863 122.026 319.997 125.159 319.997 129.024C319.997 132.858 316.913 135.971 313.091 136.02C313.059 136.023 313.028 136.026 312.996 136.026C312.963 136.026 312.929 136.023 312.896 136.02C309.078 135.965 306 132.855 306 129.024C306 125.159 309.133 122.026 312.998 122.026ZM311.602 130.477C311.689 131.511 311.869 132.472 312.13 133.269C312.296 133.778 312.493 134.206 312.698 134.507C312.829 134.699 312.936 134.798 312.995 134.84C313.055 134.798 313.161 134.699 313.292 134.507C313.497 134.206 313.694 133.778 313.86 133.269C314.121 132.472 314.302 131.512 314.39 130.478C313.937 130.507 313.472 130.521 312.999 130.521C312.524 130.521 312.056 130.506 311.602 130.477ZM318.81 129.5C318.485 129.672 318.088 129.828 317.621 129.963C317.019 130.138 316.323 130.273 315.568 130.368C315.442 132.112 315.069 133.624 314.555 134.645C314.797 134.578 315.035 134.498 315.269 134.399C315.963 134.105 316.586 133.684 317.122 133.148C317.658 132.612 318.079 131.989 318.373 131.294C318.615 130.722 318.76 130.119 318.81 129.5ZM307.187 129.5C307.236 130.119 307.382 130.722 307.624 131.294C307.918 131.989 308.339 132.612 308.875 133.148C309.411 133.684 310.034 134.105 310.729 134.399C310.959 134.496 311.195 134.577 311.435 134.643C310.921 133.622 310.549 132.111 310.423 130.368C309.67 130.273 308.977 130.137 308.377 129.963C307.91 129.828 307.511 129.672 307.187 129.5ZM312.995 123.214C312.936 123.257 312.829 123.356 312.698 123.547C312.493 123.849 312.297 124.278 312.13 124.787C311.75 125.947 311.541 127.453 311.541 129.028C311.541 129.12 311.543 129.212 311.544 129.304C312.015 129.337 312.503 129.355 312.999 129.355C313.493 129.355 313.978 129.338 314.447 129.305C314.449 129.213 314.45 129.12 314.45 129.028C314.45 127.453 314.24 125.947 313.86 124.787C313.694 124.277 313.497 123.849 313.292 123.547C313.161 123.355 313.055 123.257 312.995 123.214ZM314.555 123.403C315.199 124.678 315.616 126.723 315.616 129.028C315.616 129.081 315.616 129.134 315.615 129.186C316.171 129.11 316.687 129.009 317.145 128.885C318.372 128.554 318.702 128.184 318.723 128.103C318.723 128.104 318.722 128.107 318.722 128.111H318.759C318.686 127.645 318.558 127.191 318.373 126.754C318.079 126.06 317.658 125.437 317.122 124.901C316.586 124.365 315.963 123.944 315.269 123.65C315.035 123.551 314.797 123.47 314.555 123.403ZM311.435 123.405C311.195 123.471 310.959 123.552 310.729 123.65C310.034 123.944 309.411 124.365 308.875 124.901C308.339 125.437 307.918 126.06 307.624 126.754C307.439 127.191 307.311 127.645 307.238 128.111H307.275C307.275 128.107 307.275 128.104 307.274 128.103C307.295 128.184 307.625 128.554 308.853 128.885C309.308 129.008 309.823 129.109 310.376 129.185C310.376 129.133 310.375 129.08 310.375 129.028C310.375 126.724 310.791 124.68 311.435 123.405Z" fill="white"/>
</g>
</g>
<defs>
<clipPath id="clip0_360_2033">
<rect width="376" height="211.927" fill="white"/>
</clipPath>
<clipPath id="clip1_360_2033">
<rect width="33.345" height="31.7386" fill="white" transform="translate(62.0723 156.209)"/>
</clipPath>
<clipPath id="clip2_360_2033">
<rect width="14" height="14" fill="white" transform="translate(306 122)"/>
</clipPath>
</defs>
</svg>
