<svg width="70" height="67" viewBox="0 0 70 67" fill="none" xmlns="http://www.w3.org/2000/svg">
<g clip-path="url(#clip0_81_457)">
<path d="M22.7705 13.3481C25.011 13.3477 27.2441 13.6031 29.4268 14.1089C31.4628 14.5443 33.3659 15.4594 34.9766 16.7788L29.0332 52.5103C28.738 54.3538 28.1983 56.1504 27.4277 57.8511C26.7009 59.4496 25.6408 60.8743 24.3193 62.0308C22.8793 63.2651 21.1977 64.1862 19.3818 64.7339C17.0894 65.4164 14.7048 65.7384 12.3135 65.689C10.4075 65.7145 8.50819 65.4586 6.67676 64.9302C5.1376 64.4983 3.70757 63.745 2.48145 62.7192C1.38424 61.7858 0.550748 60.5804 0.0654297 59.2241C0.026815 59.1197 0.0324548 59.0004 0 58.896C3.13005 57.8969 6.31429 57.1099 8.96875 56.5269C9.1386 56.995 9.43619 57.4068 9.82715 57.7153C10.7374 58.4195 11.86 58.7931 13.0107 58.7749C14.5217 58.8892 16.0264 58.4802 17.2715 57.6167C18.3018 56.6596 18.9465 55.3589 19.085 53.9595L19.6973 50.2681C18.135 50.6741 16.5262 50.8745 14.9121 50.8638C12.7803 50.9263 10.6577 50.5549 8.67383 49.772C7.11021 49.135 5.73315 48.1128 4.66992 46.8013C3.65955 45.4942 2.99783 43.9517 2.74707 42.3188C2.44838 40.4507 2.46849 38.5455 2.80664 36.6841L4.47266 26.6646C4.76597 24.8756 5.38173 23.1547 6.29102 21.5864C7.23408 19.9704 8.47671 18.5489 9.95117 17.397C11.6032 16.1232 13.4613 15.1422 15.4453 14.4976C17.813 13.7394 20.2843 13.3517 22.7705 13.3481ZM20.7676 21.1284C19.2739 21.1085 17.8078 21.5343 16.5576 22.3521C15.1752 23.4055 14.3071 24.9983 14.1709 26.731L12.5156 36.6909C12.16 38.1344 12.2601 39.6528 12.8008 41.0376C13.3039 42.0525 14.4724 42.5552 16.2969 42.5552C17.6785 42.6554 19.0378 42.1658 20.0381 41.2075C21.0049 40.0444 21.6429 38.6429 21.8848 37.1499L24.4551 21.6577C23.2536 21.3249 22.0141 21.1473 20.7676 21.1284Z" fill="#3766DC"/>
<path d="M43.6699 0.5L35.3291 50.6702H45.1649L53.5057 0.5H43.6699Z" fill="#3766DC"/>
<path d="M61.728 16.5383C63.7451 16.5057 65.7354 16.0712 67.5825 15.2602L67.5992 15.2498L67.7412 14.4135H67.7245L68.4887 9.81503L68.9468 7.05811H59.2418L58.7837 9.81503L57.7842 15.8211L57.8008 15.8265C59.0617 16.2789 60.3887 16.5194 61.728 16.5382L61.728 16.5383Z" fill="#3766DC"/>
<path d="M61.7062 50.67L66.8285 19.8745L66.8065 19.8799C65.1568 20.3691 63.4464 20.6227 61.7257 20.6333C60.1624 20.6333 58.6052 20.4054 57.1052 19.9568L56.2286 25.2035L51.999 50.6646L61.7062 50.67Z" fill="#3766DC"/>
<path d="M41.7559 55.0326C41.0468 54.7603 40.2891 54.6375 39.5304 54.6719H39.4308C39.3138 54.6719 39.0902 54.6815 38.7645 54.7011C38.4388 54.7206 38.064 54.766 37.6401 54.8318C37.2161 54.8977 36.7693 54.9905 36.3008 55.1109C35.8424 55.2268 35.3985 55.3938 34.9773 55.6086C34.951 55.7684 34.9144 55.965 34.8727 56.197C34.8311 56.429 34.7869 56.6526 34.7528 56.8658L34.6254 57.6225L33.2402 65.962H36.1783L37.5634 57.6234C37.8511 57.4884 38.1587 57.4008 38.4742 57.3639C38.7555 57.3378 38.9416 57.3239 39.0327 57.3223C39.2571 57.3132 39.4801 57.3614 39.6807 57.4622C39.8434 57.5505 39.9755 57.6861 40.0593 57.8512C40.1468 58.0323 40.1945 58.2302 40.1992 58.4313C40.2072 58.6684 40.1908 58.9056 40.1501 59.1393L39.0156 65.9616H41.9725L43.1069 59.1385C43.2048 58.5688 43.2544 57.9919 43.2551 57.4139C43.2645 56.9188 43.1419 56.4301 42.8999 55.998C42.6304 55.5632 42.2298 55.2251 41.7559 55.0325V55.0326Z" fill="#3766DC"/>
<path d="M49.737 54.6792C50.4239 54.6501 51.1084 54.7831 51.7341 55.0679C51.8088 55.1074 51.8616 55.1621 51.9294 55.2036C52.3092 55.4196 52.6302 55.7265 52.863 56.0962C52.9762 56.2939 53.0658 56.5044 53.1296 56.7232C53.2171 57.0046 53.269 57.296 53.2849 57.5904C53.3149 58.1844 53.2798 58.7802 53.1804 59.3667L52.8669 61.2417H47.0905C47.0431 61.5214 47.0013 61.8234 46.9597 62.148C46.9177 62.4496 46.9233 62.7563 46.9763 63.0562C47.0189 63.3183 47.1404 63.5615 47.3239 63.7534C47.5604 63.9598 47.8707 64.0608 48.1833 64.0327C48.4193 64.04 48.6548 63.9995 48.8747 63.9136C49.0435 63.843 49.1996 63.7449 49.3357 63.6226C49.4524 63.5187 49.5528 63.397 49.6335 63.2632C49.6962 63.1527 49.7522 63.0538 49.8025 62.9517C50.6172 63.1495 51.4199 63.3936 52.2067 63.6831C52.1331 63.8762 52.0488 64.065 51.9538 64.2486C51.7062 64.6432 51.3873 64.9883 51.0134 65.2661C50.6076 65.5596 50.1509 65.7759 49.6667 65.9038C49.0686 66.0586 48.4524 66.1325 47.8347 66.1226C47.1602 66.1487 46.4895 66.005 45.8845 65.7056C45.4028 65.4528 44.9995 65.0728 44.7185 64.607C44.4438 64.1299 44.2763 63.5985 44.2273 63.0503C44.1674 62.4453 44.1892 61.835 44.2927 61.2359L44.696 58.8013C44.7898 58.2191 44.9743 57.6549 45.2419 57.1294C45.4958 56.6344 45.8405 56.191 46.2575 55.8228C46.6948 55.4459 47.2025 55.1591 47.7507 54.978C48.3916 54.7688 49.0629 54.6678 49.737 54.6792ZM49.3923 56.7681C48.9119 56.7389 48.4428 56.9264 48.114 57.2779C47.7711 57.7199 47.5569 58.2482 47.4958 58.8042L47.4011 59.3638H50.5339L50.5759 59.1245C50.6208 58.8713 50.6542 58.6102 50.6804 58.3374C50.7061 58.0833 50.6877 57.8266 50.6267 57.5786C50.5703 57.3507 50.4413 57.1472 50.2595 56.9986C50.0047 56.826 49.6991 56.7443 49.3923 56.7681Z" fill="#3766DC"/>
<path d="M59.7128 63.3346C59.5429 63.3823 59.3665 63.4028 59.1901 63.3954C59.0043 63.3924 58.819 63.3753 58.6359 63.3442C58.4311 63.3154 58.2346 63.2445 58.0587 63.136C57.8825 63.0266 57.7388 62.8722 57.6422 62.6887C57.5304 62.4417 57.5035 62.1646 57.566 61.9008L58.2656 57.6913L58.1744 57.7079C59.4629 57.2156 60.5116 56.2448 61.1017 54.9981H58.7158L59.0877 52.7659H56.1309L55.2809 57.8712L54.6117 61.8991C54.52 62.4181 54.5256 62.9497 54.6284 63.4666C54.7242 63.9558 54.9433 64.4123 55.2651 64.793C55.6249 65.2046 56.079 65.523 56.5886 65.7209C57.1354 65.924 57.7128 66.0329 58.296 66.0428C58.8023 65.2258 59.2658 64.383 59.6845 63.5179L59.7128 63.3346Z" fill="#3766DC"/>
</g>
<defs>
<clipPath id="clip0_81_457">
<rect width="68.9465" height="65.625" fill="white" transform="translate(0 0.5)"/>
</clipPath>
</defs>
</svg>
