<svg width="84" height="24" viewBox="0 0 84 24" fill="none" xmlns="http://www.w3.org/2000/svg">
<g clip-path="url(#clip0_1025_2592)">
<path d="M13.5459 15.5309L7.99925 15.5309C7.97925 15.5285 7.95897 15.5308 7.93995 15.5375C7.92092 15.5441 7.90364 15.5551 7.88939 15.5695C7.87515 15.5839 7.86432 15.6014 7.85772 15.6206C7.85111 15.6399 7.8489 15.6604 7.85125 15.6806L7.85125 17.7038C7.8489 17.724 7.85111 17.7445 7.85772 17.7638C7.86432 17.783 7.87515 17.8005 7.88939 17.8149C7.90364 17.8293 7.92092 17.8403 7.93995 17.847C7.95897 17.8536 7.97925 17.8559 7.99925 17.8535L10.8979 17.8535L10.8979 21.3252C10.1967 21.5021 9.47506 21.5824 8.75259 21.564C8.04663 21.632 7.33449 21.5442 6.66534 21.3067C5.99619 21.0691 5.38599 20.6875 4.87687 20.1881C4.36775 19.6888 3.97184 19.0836 3.7165 18.4143C3.46116 17.7451 3.35246 17.0277 3.39792 16.3119C3.39792 13.0748 5.54325 11.0746 8.98859 11.0746C10.0664 11.0428 11.139 11.2366 12.1393 11.6438L12.4499 11.7786C12.4881 11.7938 12.5304 11.7938 12.5686 11.7786C12.6126 11.7638 12.6273 11.7341 12.6419 11.6883L13.2779 9.66512C13.2899 9.63135 13.2891 9.59426 13.2755 9.56109C13.262 9.52792 13.2367 9.50105 13.2046 9.48573L12.9686 9.38053C11.713 8.89729 10.377 8.66373 9.03392 8.69265C3.93125 8.69265 0.469921 11.7948 0.455254 16.3982C0.423223 17.4322 0.605368 18.4617 0.989987 19.4203C1.37461 20.3789 1.9532 21.2456 2.68859 21.9645C4.34369 23.3547 6.45822 24.0583 8.60592 23.9337C10.2247 23.9231 11.8318 23.6555 13.3686 23.1407L13.5606 23.0813C13.5899 23.073 13.6158 23.0554 13.6345 23.0312C13.6532 23.0069 13.6637 22.9772 13.6646 22.9464L13.6646 15.6901C13.6717 15.6715 13.674 15.6513 13.6713 15.6316C13.6685 15.6118 13.6609 15.5931 13.649 15.5771C13.6371 15.5612 13.6214 15.5486 13.6034 15.5405C13.5853 15.5324 13.5656 15.5291 13.5459 15.5309Z" fill="#636363"/>
<path d="M28.0269 21.3967L21.7603 21.3967L21.7603 8.97727C21.7626 8.95703 21.7604 8.93652 21.7538 8.91727C21.7472 8.89803 21.7364 8.88054 21.7221 8.86613C21.7079 8.85173 21.6906 8.84077 21.6716 8.83409C21.6525 8.82741 21.6323 8.82517 21.6123 8.82755L19.0683 8.82755C19.0483 8.82517 19.028 8.82741 19.0089 8.83409C18.9899 8.84077 18.9726 8.85173 18.9584 8.86613C18.9442 8.88054 18.9333 8.89803 18.9267 8.91727C18.9201 8.93652 18.9179 8.95703 18.9203 8.97727L18.9203 23.6262C18.9179 23.6465 18.9201 23.667 18.9267 23.6862C18.9333 23.7055 18.9442 23.723 18.9584 23.7374C18.9726 23.7518 18.9899 23.7627 19.0089 23.7694C19.028 23.7761 19.0483 23.7783 19.0683 23.776L28.0323 23.776C28.0523 23.7783 28.0725 23.7761 28.0916 23.7694C28.1106 23.7627 28.1279 23.7518 28.1421 23.7374C28.1564 23.723 28.1672 23.7055 28.1738 23.6862C28.1804 23.667 28.1826 23.6465 28.1802 23.6262L28.1802 21.5303C28.1765 21.4923 28.1585 21.4573 28.13 21.4325C28.1014 21.4076 28.0645 21.3948 28.0269 21.3967Z" fill="#636363"/>
<path d="M42.8779 7.4815C42.6763 7.47611 42.4758 7.51231 42.2885 7.58788C42.1012 7.66345 41.931 7.77681 41.7884 7.92106C41.6458 8.0653 41.5338 8.2374 41.4591 8.42687C41.3844 8.61634 41.3486 8.81922 41.3539 9.02314C41.3482 9.2226 41.3822 9.42119 41.4541 9.60701C41.526 9.79284 41.6342 9.96209 41.7723 10.1046C41.9103 10.2472 42.0754 10.3601 42.2576 10.4366C42.4397 10.5131 42.6353 10.5517 42.8326 10.5499C43.0459 10.5559 43.2582 10.5179 43.4565 10.4381C43.6548 10.3583 43.8349 10.2385 43.9859 10.086C44.1197 9.94505 44.2241 9.77831 44.2928 9.59571C44.3615 9.41311 44.3932 9.21839 44.3859 9.02314C44.3917 8.82046 44.3568 8.6187 44.2833 8.43007C44.2097 8.24145 44.0991 8.06987 43.9582 7.92574C43.8172 7.78161 43.6488 7.66793 43.4631 7.59157C43.2774 7.5152 43.0783 7.47776 42.8779 7.4815Z" fill="#636363"/>
<path d="M44.1482 12.8077L41.5896 12.8077C41.5695 12.8053 41.5493 12.8075 41.5303 12.8142C41.5112 12.8209 41.4939 12.8318 41.4797 12.8462C41.4654 12.8607 41.4546 12.8781 41.448 12.8974C41.4414 12.9166 41.4392 12.9372 41.4416 12.9574L41.4416 23.641C41.4392 23.6612 41.4414 23.6817 41.448 23.701C41.4546 23.7202 41.4654 23.7377 41.4797 23.7521C41.4939 23.7665 41.5112 23.7775 41.5303 23.7842C41.5493 23.7908 41.5695 23.7931 41.5896 23.7907L44.1482 23.7907C44.1682 23.7931 44.1885 23.7908 44.2075 23.7842C44.2265 23.7775 44.2438 23.7665 44.2581 23.7521C44.2723 23.7377 44.2831 23.7202 44.2897 23.701C44.2964 23.6817 44.2986 23.6612 44.2962 23.641L44.2962 12.9574C44.2986 12.9372 44.2964 12.9166 44.2897 12.8974C44.2831 12.8781 44.2723 12.8607 44.2581 12.8462C44.2438 12.8318 44.2265 12.8209 44.2075 12.8142C44.1885 12.8075 44.1682 12.8053 44.1482 12.8077Z" fill="#636363"/>
<path d="M60.4193 8.84234L57.994 8.84234C57.974 8.83996 57.9537 8.8422 57.9347 8.84888C57.9156 8.85556 57.8983 8.86652 57.8841 8.88092C57.8698 8.89533 57.859 8.91281 57.8524 8.93206C57.8458 8.95131 57.8436 8.97182 57.846 8.99205L57.846 15.1721C57.846 16.3685 57.8606 17.6565 57.9193 19.0175C57.402 18.1043 56.81 17.1616 56.1446 16.1743L51.2486 8.90304C51.2357 8.88355 51.2179 8.86782 51.1971 8.85741C51.1763 8.84701 51.1532 8.84228 51.13 8.84369L48.542 8.84369C48.522 8.84131 48.5017 8.84354 48.4827 8.85023C48.4637 8.85691 48.4463 8.86786 48.4321 8.88227C48.4179 8.89668 48.4071 8.91416 48.4004 8.93341C48.3938 8.95266 48.3916 8.97317 48.394 8.99341L48.394 23.641C48.3916 23.6613 48.3938 23.6818 48.4004 23.701C48.4071 23.7203 48.4179 23.7378 48.4321 23.7522C48.4463 23.7666 48.4637 23.7775 48.4827 23.7842C48.5017 23.7909 48.522 23.7931 48.542 23.7907L50.9673 23.7907C50.9873 23.7931 51.0076 23.7909 51.0266 23.7842C51.0457 23.7775 51.0629 23.7666 51.0772 23.7522C51.0914 23.7378 51.1023 23.7203 51.1089 23.701C51.1155 23.6818 51.1176 23.6613 51.1153 23.641L51.1153 17.3396C51.1153 15.7683 51.1006 14.4964 51.0566 13.3149C51.59 14.2428 52.2406 15.2746 53.0233 16.4427L57.8753 23.726C57.8883 23.7455 57.906 23.7612 57.9269 23.7716C57.9477 23.782 57.9708 23.7868 57.994 23.7854L60.4193 23.7854C60.4393 23.7877 60.4596 23.7855 60.4786 23.7788C60.4976 23.7721 60.5149 23.7612 60.5292 23.7468C60.5434 23.7324 60.5542 23.7149 60.5608 23.6956C60.5675 23.6764 60.5697 23.6559 60.5673 23.6356L60.5673 8.99205C60.5697 8.97182 60.5675 8.95131 60.5608 8.93206C60.5542 8.91281 60.5434 8.89533 60.5292 8.88092C60.5149 8.86652 60.4976 8.85556 60.4786 8.84888C60.4596 8.8422 60.4393 8.83996 60.4193 8.84234Z" fill="#636363"/>
<path d="M69.3968 12.5838C68.6438 12.5706 67.8965 12.7162 67.2022 13.0112C66.508 13.3063 65.8821 13.7444 65.3644 14.2976C64.8468 14.8508 64.4487 15.507 64.1955 16.2244C63.9424 16.9418 63.8397 17.7047 63.8941 18.4645C63.8941 21.8364 66.1607 23.9944 69.6474 23.9944C70.9352 24.0268 72.2168 23.8032 73.4194 23.3362L73.6407 23.2459C73.6746 23.232 73.7023 23.2062 73.7187 23.1732C73.7352 23.1402 73.7392 23.1023 73.7301 23.0665L73.2567 21.1957C73.251 21.1765 73.2416 21.1587 73.229 21.1432C73.2164 21.1277 73.2009 21.1148 73.1834 21.1054C73.1453 21.0903 73.1029 21.0903 73.0648 21.1054L72.7394 21.2402C71.8457 21.5974 70.8891 21.7654 69.9287 21.7339C69.1545 21.8121 68.3812 21.5775 67.7773 21.0813C67.1733 20.5851 66.7878 19.8675 66.7047 19.0849L74.0714 19.0849C74.1077 19.0832 74.1422 19.0688 74.1692 19.0442C74.1962 19.0196 74.2139 18.9863 74.2194 18.95L74.2634 18.6209C74.304 18.3486 74.3236 18.0736 74.3221 17.7982C74.3074 15.3826 73.0208 12.5838 69.3968 12.5838ZM66.7781 16.8783C66.8865 16.2913 67.1912 15.7598 67.6411 15.373C68.0909 14.9862 68.6585 14.7677 69.2487 14.754C69.8163 14.7216 70.3739 14.9152 70.8021 15.2935C71.2104 15.7234 71.4563 16.2849 71.4967 16.8797L66.7781 16.8783Z" fill="#636363"/>
<path d="M83.4347 12.8078L80.7681 12.8078L80.7681 9.96459C80.7695 9.94114 80.7648 9.91774 80.7545 9.89668C80.7442 9.87563 80.7287 9.85765 80.7094 9.84454C80.6915 9.82861 80.6698 9.81753 80.6465 9.81234C80.6232 9.80716 80.599 9.80803 80.5761 9.81488L78.0614 10.4434C78.0285 10.4523 77.9991 10.4716 77.9778 10.4985C77.9564 10.5255 77.9441 10.5586 77.9427 10.5931L77.9427 12.8078L76.4187 12.8078C76.3987 12.8054 76.3785 12.8076 76.3595 12.8143C76.3404 12.821 76.3232 12.832 76.3089 12.8464C76.2947 12.8608 76.2838 12.8783 76.2772 12.8975C76.2706 12.9168 76.2684 12.9373 76.2708 12.9575L76.2708 14.9173C76.2684 14.9375 76.2706 14.958 76.2772 14.9773C76.2838 14.9965 76.2947 15.014 76.3089 15.0284C76.3232 15.0428 76.3404 15.0538 76.3595 15.0604C76.3785 15.0671 76.3987 15.0694 76.4187 15.067L77.9574 15.067L77.9574 20.1545C77.8998 20.6752 77.9474 21.2023 78.0973 21.7038C78.2472 22.2053 78.4963 22.6708 78.8294 23.0719C79.1545 23.3867 79.5403 23.6302 79.9626 23.7874C80.385 23.9445 80.8349 24.0118 81.2841 23.985C81.9314 24.0002 82.5766 23.904 83.1921 23.7005L83.3841 23.6263C83.4134 23.615 83.4382 23.5942 83.4543 23.567C83.4705 23.5399 83.4772 23.508 83.4734 23.4766L83.3547 21.5465C83.3545 21.5254 83.349 21.5046 83.3388 21.4862C83.3285 21.4679 83.3138 21.4524 83.2961 21.4413C83.2619 21.4159 83.2193 21.4052 83.1774 21.4116L82.8228 21.502C82.4878 21.5759 82.1456 21.6111 81.8027 21.6072C81.2854 21.6072 80.7827 21.4871 80.7827 20.0655L80.7827 15.0373L83.4494 15.0373C83.4694 15.0397 83.4897 15.0374 83.5087 15.0308C83.5277 15.0241 83.545 15.0131 83.5592 14.9987C83.5735 14.9843 83.5844 14.9668 83.591 14.9476C83.5976 14.9283 83.5998 14.9078 83.5974 14.8876L83.5974 12.9278C83.5854 12.8936 83.5634 12.8638 83.5343 12.8424C83.5053 12.821 83.4706 12.8089 83.4347 12.8078Z" fill="#636363"/>
<path d="M33.9128 18.0153C34.7787 18.0153 35.4808 17.3052 35.4808 16.4292C35.4808 15.5531 34.7787 14.843 33.9128 14.843C33.0468 14.843 32.3448 15.5531 32.3448 16.4292C32.3448 17.3052 33.0468 18.0153 33.9128 18.0153Z" fill="#636363"/>
<path d="M49.2811 2.45315C49.3255 2.40882 49.3591 2.35459 49.3791 2.29478C49.3991 2.23498 49.405 2.17127 49.3964 2.10875C49.3877 2.04622 49.3647 1.98662 49.3291 1.93471C49.2936 1.8828 49.2466 1.84002 49.1918 1.80979L48.9104 1.64524C47.0696 0.566997 44.9802 -0.000793457 42.8531 -0.000793457C40.726 -0.000793457 38.6365 0.566997 36.7958 1.64524L36.5291 1.80979C36.4743 1.84002 36.4273 1.8828 36.3917 1.93471C36.3562 1.98662 36.3332 2.04622 36.3245 2.10875C36.3158 2.17127 36.3217 2.23498 36.3417 2.29478C36.3618 2.35459 36.3953 2.40882 36.4398 2.45315L37.2971 3.32041C37.3589 3.38623 37.4414 3.42818 37.5305 3.43901C37.6196 3.44984 37.7097 3.42889 37.7851 3.37976C39.322 2.47805 41.0671 2.00315 42.8438 2.00315C44.6204 2.00315 46.3656 2.47805 47.9024 3.37976L47.9171 3.37976C47.9943 3.42276 48.083 3.44017 48.1705 3.42952C48.2581 3.41888 48.3401 3.38071 48.4051 3.32041L49.2811 2.45315Z" fill="#636363"/>
<path d="M46.5874 4.51828C45.4437 3.88336 44.1605 3.54927 42.8559 3.54668C41.5513 3.54408 40.2669 3.87307 39.1207 4.50344C39.0687 4.53571 39.0244 4.57935 38.9912 4.63116C38.958 4.68297 38.9366 4.74164 38.9287 4.80287C38.9263 4.89609 38.9582 4.98689 39.0181 5.05779L39.9647 6.01542C40.023 6.07585 40.0981 6.11688 40.1801 6.13302C40.262 6.14917 40.3469 6.13967 40.4234 6.10578C41.178 5.74911 42.0011 5.56491 42.8341 5.56628C43.6711 5.57055 44.4978 5.75444 45.2594 6.10578C45.3356 6.14125 45.4208 6.15161 45.5031 6.1354C45.5854 6.11918 45.6606 6.07721 45.718 6.01542L46.6354 5.08746C46.6704 5.0493 46.6976 5.0045 46.7154 4.95566C46.7333 4.90683 46.7414 4.8549 46.7394 4.80287L46.7394 4.7732C46.7415 4.72031 46.7283 4.66794 46.7013 4.62261C46.6743 4.57728 46.6347 4.541 46.5874 4.51828Z" fill="#636363"/>
</g>
<defs>
<clipPath id="clip0_1025_2592">
<rect width="83.1427" height="24" fill="white" transform="translate(0.454659)"/>
</clipPath>
</defs>
</svg>
