<svg width="240" height="240" viewBox="0 0 240 240" fill="none" xmlns="http://www.w3.org/2000/svg">
<g clip-path="url(#clip0_112_528)">
<rect width="240" height="240" rx="120" fill="white"/>
<circle cx="119.76" cy="120.24" r="120.24" fill="#E4EFFF"/>
<path d="M155.98 124.283L167.867 128.335C169.517 128.897 171.04 129.781 172.347 130.936C173.653 132.09 174.718 133.492 175.48 135.06C176.242 136.629 176.686 138.332 176.785 140.073C176.885 141.814 176.639 143.557 176.061 145.202L159.148 193.386C129.088 168.673 116.481 142.863 123.853 131.401C129.482 122.657 146.161 123.152 155.98 124.283Z" fill="#79B1DF"/>
<path d="M145.466 92L162.021 97.6075C167.792 125.293 155.818 124.684 155.818 124.684L155.713 128.955C155.741 129.366 155.741 129.779 155.713 130.191C155.52 132.56 154.394 134.755 152.583 136.294C150.772 137.833 148.423 138.59 146.054 138.398C143.685 138.206 141.489 137.08 139.95 135.269C138.411 133.457 137.654 131.108 137.847 128.739L139.692 110.361L136.482 110.1C135.844 110.048 135.221 109.872 134.651 109.579C134.08 109.287 133.573 108.885 133.158 108.397C132.744 107.908 132.429 107.342 132.233 106.732C132.037 106.122 131.964 105.479 132.017 104.84C132.017 104.666 132.051 104.492 132.083 104.315C132.348 102.792 133.207 101.436 134.471 100.547C135.736 99.657 137.302 99.3059 138.825 99.5706L140.499 99.863L145.466 92Z" fill="#FFC1C2"/>
<path d="M167.527 91.3064C167.301 89.399 165.665 87.7665 163.465 86.9973C163.636 86.4473 165.446 80.3178 161.826 76.3845C159.828 74.2091 157.165 73.7914 155.835 73.5999C147.482 72.2981 140.189 79.3327 138.731 80.7354C136.799 82.5976 137.311 82.6986 132.626 88.0032C131.554 89.1519 130.658 90.4527 129.967 91.8634C129.337 93.2586 128.894 94.7309 128.651 96.2421C128.115 99.8029 131.484 108.077 139.027 116.719L139.594 109.737L136.496 109.483C135.402 109.405 134.371 108.943 133.584 108.179C132.797 107.415 132.305 106.397 132.194 105.306C132.155 104.831 132.177 104.352 132.26 103.882C132.387 103.154 132.655 102.459 133.05 101.835C133.446 101.21 133.96 100.67 134.564 100.245C135.169 99.8202 135.851 99.5184 136.572 99.3571C137.292 99.1958 138.038 99.1781 138.766 99.3052C139.224 99.3842 139.641 99.6175 139.948 99.9664C140.255 100.315 140.434 100.759 140.454 101.223L140.569 103.924C140.574 104.045 140.621 104.16 140.701 104.25C140.782 104.341 140.891 104.4 141.011 104.418C141.126 104.434 141.244 104.413 141.346 104.357C141.448 104.301 141.529 104.214 141.578 104.109L144.666 97.8154L144.718 97.7145C144.922 97.3649 145.257 97.1105 145.648 97.0067C146.039 96.903 146.456 96.9585 146.806 97.161C149.375 98.6578 156.726 100.151 161.425 98.6404C163.168 98.0517 164.704 96.9709 165.846 95.5286C166.577 94.5992 167.743 93.1373 167.527 91.3064Z" fill="black"/>
<path d="M174.756 106.448C174.751 107.33 175.041 108.189 175.582 108.886C176.122 109.584 176.88 110.081 177.735 110.297L207.245 117.875C208.213 118.124 209.208 118.25 210.207 118.251H210.301C211.969 118.232 213.614 117.86 215.128 117.159C216.641 116.458 217.989 115.444 219.081 114.184C220.174 112.924 220.987 111.446 221.467 109.848C221.947 108.251 222.082 106.57 221.865 104.916C221.647 103.263 221.081 101.674 220.205 100.255C219.328 98.8358 218.16 97.6189 216.779 96.6844C215.397 95.7499 213.833 95.119 212.19 94.8333C210.546 94.5477 208.861 94.6138 207.245 95.0273L177.735 102.605C176.884 102.826 176.13 103.323 175.591 104.018C175.048 104.711 174.754 105.567 174.756 106.448Z" fill="#79B1DF"/>
<path d="M175.4 108.616C175.946 109.449 176.782 110.049 177.746 110.297L207.256 117.875C208.224 118.124 209.219 118.25 210.218 118.251H210.312L216.578 107.614L175.4 108.599V108.616Z" fill="#3A8CDD"/>
<path d="M210.089 118.254C216.564 118.254 221.812 113.006 221.812 106.531C221.812 100.057 216.564 94.8081 210.089 94.8081C203.615 94.8081 198.366 100.057 198.366 106.531C198.366 113.006 203.615 118.254 210.089 118.254Z" fill="#537BDF"/>
<path d="M210.089 116.155C215.404 116.155 219.713 111.846 219.713 106.531C219.713 101.216 215.404 96.9069 210.089 96.9069C204.774 96.9069 200.465 101.216 200.465 106.531C200.465 111.846 204.774 116.155 210.089 116.155Z" fill="#294488"/>
<path d="M216.474 110.652C216.593 110.653 216.71 110.62 216.813 110.559C216.915 110.498 216.999 110.41 217.055 110.304C217.991 108.515 218.216 106.439 217.685 104.491C217.154 102.543 215.907 100.867 214.194 99.7994C214.047 99.7071 213.869 99.6771 213.699 99.7159C213.53 99.7548 213.383 99.8593 213.291 100.007C213.198 100.154 213.168 100.332 213.207 100.501C213.246 100.67 213.35 100.817 213.498 100.91C214.933 101.802 215.978 103.203 216.422 104.834C216.866 106.464 216.677 108.202 215.892 109.699C215.853 109.775 215.828 109.858 215.821 109.943C215.813 110.029 215.822 110.115 215.848 110.197C215.874 110.279 215.916 110.355 215.971 110.42C216.027 110.486 216.095 110.54 216.171 110.579C216.264 110.629 216.368 110.654 216.474 110.652Z" fill="white"/>
<path d="M212.179 114.196H212.227C212.885 114.138 213.522 113.941 214.097 113.618C214.673 113.295 215.173 112.854 215.565 112.323C215.614 112.252 215.647 112.173 215.665 112.089C215.682 112.005 215.683 111.918 215.667 111.834C215.651 111.75 215.619 111.67 215.572 111.598C215.525 111.526 215.464 111.465 215.393 111.416C215.322 111.368 215.243 111.334 215.159 111.317C215.075 111.299 214.988 111.299 214.904 111.315C214.82 111.331 214.74 111.363 214.668 111.41C214.596 111.457 214.535 111.518 214.486 111.589C214.206 111.958 213.852 112.266 213.446 112.49C213.04 112.715 212.592 112.853 212.13 112.894C211.957 112.9 211.794 112.975 211.677 113.102C211.559 113.228 211.497 113.397 211.503 113.569C211.51 113.742 211.585 113.905 211.711 114.022C211.838 114.14 212.006 114.202 212.179 114.196Z" fill="white"/>
<path d="M145.14 106.448C145.136 107.33 145.428 108.187 145.968 108.885C146.507 109.582 147.265 110.079 148.119 110.297L177.632 117.875C178.599 118.124 179.593 118.25 180.591 118.251H180.688C182.356 118.232 184.001 117.86 185.515 117.159C187.028 116.458 188.376 115.444 189.469 114.184C190.561 112.924 191.375 111.446 191.854 109.848C192.334 108.251 192.47 106.57 192.252 104.916C192.034 103.263 191.469 101.674 190.592 100.255C189.715 98.8358 188.547 97.6189 187.166 96.6844C185.784 95.7499 184.22 95.119 182.577 94.8333C180.934 94.5477 179.248 94.6138 177.632 95.0273L148.119 102.605C147.269 102.827 146.516 103.324 145.979 104.018C145.434 104.711 145.139 105.567 145.14 106.448Z" fill="#79B1DF"/>
<path d="M145.775 108.616C146.32 109.448 147.155 110.048 148.118 110.297L177.631 117.875C178.598 118.124 179.592 118.25 180.59 118.251H180.687L186.953 107.614L145.789 108.599L145.775 108.616Z" fill="#3A8CDD"/>
<path d="M180.476 118.254C186.951 118.254 192.199 113.006 192.199 106.531C192.199 100.057 186.951 94.8081 180.476 94.8081C174.002 94.8081 168.753 100.057 168.753 106.531C168.753 113.006 174.002 118.254 180.476 118.254Z" fill="#537BDF"/>
<path d="M180.475 116.155C185.79 116.155 190.099 111.846 190.099 106.531C190.099 101.216 185.79 96.9069 180.475 96.9069C175.16 96.9069 170.851 101.216 170.851 106.531C170.851 111.846 175.16 116.155 180.475 116.155Z" fill="#294488"/>
<path d="M186.855 110.652C186.974 110.653 187.091 110.621 187.193 110.56C187.295 110.498 187.378 110.41 187.433 110.304C188.369 108.516 188.595 106.439 188.065 104.491C187.535 102.543 186.289 100.868 184.576 99.7994C184.428 99.7071 184.25 99.6771 184.081 99.7159C183.912 99.7548 183.765 99.8593 183.672 100.007C183.58 100.154 183.55 100.332 183.589 100.501C183.628 100.67 183.732 100.817 183.879 100.91C185.316 101.8 186.362 103.202 186.807 104.833C187.252 106.463 187.063 108.202 186.278 109.699C186.238 109.775 186.213 109.858 186.206 109.943C186.198 110.029 186.208 110.115 186.234 110.197C186.26 110.279 186.301 110.355 186.357 110.42C186.412 110.486 186.48 110.54 186.556 110.579C186.648 110.628 186.751 110.654 186.855 110.652Z" fill="white"/>
<path d="M182.564 114.196H182.613C183.27 114.137 183.907 113.939 184.482 113.616C185.058 113.294 185.558 112.853 185.951 112.323C186.049 112.18 186.085 112.004 186.053 111.834C186.02 111.664 185.922 111.514 185.779 111.416C185.636 111.319 185.46 111.282 185.29 111.315C185.12 111.347 184.97 111.446 184.872 111.589C184.592 111.958 184.238 112.266 183.832 112.49C183.426 112.715 182.978 112.853 182.516 112.894C182.343 112.9 182.18 112.975 182.063 113.102C181.945 113.228 181.883 113.397 181.889 113.569C181.896 113.742 181.97 113.905 182.097 114.022C182.224 114.14 182.392 114.202 182.564 114.196Z" fill="white"/>
<path d="M151.37 111.002L146.72 121.19L132 120.842C132 120.842 141.488 97.4309 156.661 100.233C156.661 100.222 149.209 103.825 151.37 111.002Z" fill="#FFC1C2"/>
<path d="M150.939 111.307L146.288 121.495L131.568 121.147L141.161 119.782C142.582 119.584 143.93 119.034 145.085 118.183C146.24 117.332 147.164 116.207 147.775 114.909C148.682 112.93 149.247 110.812 149.445 108.644C150.121 101.85 156.243 100.555 156.243 100.555C156.243 100.555 148.777 104.129 150.939 111.307Z" fill="#ED9C9C"/>
<path d="M134.85 105.174C134.85 105.174 134.442 103.499 135.295 102.57C135.862 101.951 136.886 101.756 138.344 101.989L138.487 101.091C136.708 100.809 135.406 101.091 134.623 101.961C133.44 103.256 133.948 105.309 133.969 105.396L134.85 105.174Z" fill="#ED9C9C"/>
<path d="M155.879 128.609C152.378 128.028 149.538 126.246 147.209 123.569C149.865 124.704 155.98 124.283 155.98 124.283L155.879 128.609Z" fill="#ED9C9C"/>
<path d="M156.931 117.962L157.161 117.179C156.147 116.888 155.117 116.656 154.077 116.483C153.054 116.308 152.022 116.191 150.986 116.135L150.938 116.952C151.943 117.011 152.945 117.127 153.938 117.301C154.947 117.465 155.947 117.686 156.931 117.962Z" fill="#ED9C9C"/>
<rect x="18" y="134" width="140.878" height="106.99" rx="13.0712" fill="#CDCDCD"/>
<g clip-path="url(#clip1_112_528)">
<path d="M63.7539 180.655H58.3502C58.3307 180.653 58.3109 180.655 58.2924 180.661C58.2738 180.667 58.257 180.678 58.2431 180.691C58.2293 180.705 58.2187 180.721 58.2123 180.739C58.2058 180.757 58.2037 180.776 58.206 180.795V182.692C58.2037 182.711 58.2058 182.73 58.2123 182.748C58.2187 182.766 58.2293 182.783 58.2431 182.796C58.257 182.81 58.2738 182.82 58.2924 182.826C58.3109 182.833 58.3307 182.835 58.3502 182.832H61.1741V186.087C60.491 186.253 59.7879 186.328 59.0841 186.311C58.3963 186.375 57.7025 186.292 57.0506 186.07C56.3987 185.847 55.8042 185.489 55.3082 185.021C54.8122 184.553 54.4265 183.986 54.1778 183.358C53.929 182.731 53.8231 182.058 53.8674 181.387C53.8674 178.352 55.9575 176.477 59.314 176.477C60.364 176.447 61.409 176.629 62.3835 177.011L62.6861 177.137C62.7233 177.151 62.7646 177.151 62.8017 177.137C62.8446 177.123 62.8589 177.096 62.8732 177.053L63.4928 175.156C63.5045 175.124 63.5037 175.089 63.4905 175.058C63.4772 175.027 63.4526 175.002 63.4213 174.988L63.1914 174.889C61.9682 174.436 60.6666 174.217 59.3582 174.244C54.387 174.244 51.0149 177.152 51.0006 181.468C50.9694 182.437 51.1468 183.403 51.5215 184.301C51.8962 185.2 52.4599 186.012 53.1764 186.687C54.7888 187.99 56.8488 188.649 58.9412 188.533C60.5183 188.523 62.084 188.272 63.5811 187.789L63.7682 187.734C63.7967 187.726 63.8219 187.709 63.8401 187.686C63.8584 187.664 63.8687 187.636 63.8695 187.607V180.804C63.8764 180.787 63.8787 180.768 63.876 180.749C63.8733 180.731 63.8659 180.713 63.8543 180.698C63.8427 180.683 63.8274 180.672 63.8099 180.664C63.7923 180.656 63.773 180.653 63.7539 180.655Z" fill="white"/>
<path d="M77.8631 186.154H71.7579V174.511C71.7602 174.492 71.7581 174.473 71.7516 174.455C71.7452 174.437 71.7347 174.42 71.7208 174.407C71.7069 174.393 71.6901 174.383 71.6715 174.377C71.653 174.37 71.6332 174.368 71.6137 174.371H69.1353C69.1158 174.368 69.0961 174.37 69.0775 174.377C69.059 174.383 69.0422 174.393 69.0283 174.407C69.0144 174.42 69.0039 174.437 68.9974 174.455C68.991 174.473 68.9888 174.492 68.9911 174.511V188.244C68.9888 188.263 68.991 188.283 68.9974 188.301C69.0039 188.319 69.0144 188.335 69.0283 188.349C69.0422 188.362 69.059 188.372 69.0775 188.379C69.0961 188.385 69.1158 188.387 69.1353 188.385H77.8683C77.8878 188.387 77.9075 188.385 77.9261 188.379C77.9446 188.372 77.9615 188.362 77.9753 188.349C77.9892 188.335 77.9998 188.319 78.0062 188.301C78.0126 188.283 78.0148 188.263 78.0125 188.244V186.279C78.0089 186.244 77.9913 186.211 77.9635 186.188C77.9357 186.164 77.8998 186.152 77.8631 186.154Z" fill="white"/>
<path d="M92.331 173.109C92.1347 173.104 91.9393 173.137 91.7568 173.208C91.5743 173.279 91.4086 173.385 91.2696 173.521C91.1307 173.656 91.0216 173.817 90.9488 173.995C90.876 174.173 90.8411 174.363 90.8463 174.554C90.8407 174.741 90.8739 174.927 90.9439 175.101C91.014 175.275 91.1194 175.434 91.2539 175.568C91.3884 175.701 91.5492 175.807 91.7267 175.879C91.9042 175.951 92.0947 175.987 92.2869 175.985C92.4947 175.991 92.7015 175.955 92.8947 175.88C93.0879 175.806 93.2634 175.693 93.4105 175.55C93.5408 175.418 93.6425 175.262 93.7095 175.091C93.7764 174.919 93.8072 174.737 93.8002 174.554C93.8058 174.364 93.7718 174.175 93.7002 173.998C93.6286 173.821 93.5208 173.66 93.3834 173.525C93.2461 173.39 93.082 173.283 92.9011 173.212C92.7202 173.14 92.5263 173.105 92.331 173.109Z" fill="white"/>
<path d="M93.5675 178.102H91.0748C91.0553 178.1 91.0355 178.102 91.017 178.108C90.9985 178.114 90.9816 178.125 90.9677 178.138C90.9538 178.152 90.9433 178.168 90.9369 178.186C90.9304 178.204 90.9283 178.223 90.9306 178.242V188.258C90.9283 188.277 90.9304 188.296 90.9369 188.314C90.9433 188.332 90.9538 188.349 90.9677 188.362C90.9816 188.376 90.9985 188.386 91.017 188.392C91.0355 188.399 91.0553 188.401 91.0748 188.399H93.5675C93.587 188.401 93.6067 188.399 93.6252 188.392C93.6438 188.386 93.6606 188.376 93.6745 188.362C93.6884 188.349 93.6989 188.332 93.7054 188.314C93.7118 188.296 93.714 188.277 93.7117 188.258V178.242C93.714 178.223 93.7118 178.204 93.7054 178.186C93.6989 178.168 93.6884 178.152 93.6745 178.138C93.6606 178.125 93.6438 178.114 93.6252 178.108C93.6067 178.102 93.587 178.1 93.5675 178.102Z" fill="white"/>
<path d="M109.419 174.384H107.057C107.037 174.382 107.017 174.384 106.999 174.391C106.98 174.397 106.963 174.407 106.95 174.421C106.936 174.434 106.925 174.45 106.919 174.469C106.912 174.487 106.91 174.506 106.912 174.525V180.319C106.912 181.44 106.927 182.648 106.984 183.924C106.48 183.068 105.903 182.184 105.255 181.258L100.485 174.441C100.472 174.423 100.455 174.408 100.435 174.399C100.415 174.389 100.392 174.384 100.37 174.386H97.8482C97.8287 174.383 97.809 174.386 97.7904 174.392C97.7719 174.398 97.755 174.408 97.7412 174.422C97.7273 174.435 97.7168 174.452 97.7103 174.47C97.7039 174.488 97.7017 174.507 97.704 174.526V188.258C97.7017 188.277 97.7039 188.296 97.7103 188.314C97.7168 188.332 97.7273 188.349 97.7412 188.362C97.755 188.376 97.7719 188.386 97.7904 188.392C97.809 188.399 97.8287 188.401 97.8482 188.399H100.211C100.231 188.401 100.25 188.399 100.269 188.392C100.287 188.386 100.304 188.376 100.318 188.362C100.332 188.349 100.342 188.332 100.349 188.314C100.355 188.296 100.357 188.277 100.355 188.258V182.351C100.355 180.877 100.341 179.685 100.298 178.577C100.818 179.447 101.452 180.415 102.214 181.51L106.941 188.338C106.954 188.356 106.971 188.371 106.991 188.381C107.011 188.39 107.034 188.395 107.057 188.393H109.419C109.439 188.396 109.459 188.394 109.477 188.387C109.496 188.381 109.513 188.371 109.526 188.357C109.54 188.344 109.551 188.327 109.557 188.309C109.564 188.291 109.566 188.272 109.564 188.253V174.525C109.566 174.506 109.564 174.487 109.557 174.469C109.551 174.45 109.54 174.434 109.526 174.421C109.513 174.407 109.496 174.397 109.477 174.391C109.459 174.384 109.439 174.382 109.419 174.384Z" fill="white"/>
<path d="M118.166 177.892C117.432 177.88 116.704 178.016 116.028 178.293C115.351 178.57 114.742 178.98 114.237 179.499C113.733 180.018 113.345 180.633 113.098 181.305C112.852 181.978 112.752 182.693 112.805 183.405C112.805 186.567 115.013 188.59 118.41 188.59C119.664 188.62 120.913 188.41 122.085 187.973L122.3 187.888C122.333 187.875 122.36 187.851 122.376 187.82C122.392 187.789 122.396 187.753 122.387 187.72L121.926 185.966C121.921 185.948 121.911 185.931 121.899 185.917C121.887 185.902 121.872 185.89 121.855 185.881C121.818 185.867 121.776 185.867 121.739 185.881L121.422 186.008C120.552 186.342 119.62 186.5 118.684 186.47C117.93 186.544 117.176 186.324 116.588 185.859C116 185.393 115.624 184.721 115.543 183.987H122.72C122.755 183.985 122.789 183.972 122.815 183.949C122.841 183.926 122.859 183.895 122.864 183.861L122.907 183.552C122.946 183.297 122.966 183.039 122.964 182.781C122.95 180.516 121.696 177.892 118.166 177.892ZM115.614 181.918C115.72 181.368 116.017 180.87 116.455 180.507C116.893 180.144 117.446 179.94 118.021 179.927C118.574 179.896 119.118 180.078 119.535 180.433C119.933 180.836 120.172 181.362 120.212 181.92L115.614 181.918Z" fill="white"/>
<path d="M131.842 178.102H129.244V175.437C129.245 175.415 129.24 175.393 129.23 175.373C129.22 175.353 129.205 175.336 129.186 175.324C129.169 175.309 129.148 175.299 129.125 175.294C129.102 175.289 129.079 175.29 129.057 175.296L126.607 175.885C126.575 175.894 126.546 175.912 126.525 175.937C126.504 175.962 126.492 175.993 126.491 176.026V178.102H125.006C124.987 178.1 124.967 178.102 124.949 178.108C124.93 178.114 124.913 178.125 124.899 178.138C124.886 178.152 124.875 178.168 124.868 178.186C124.862 178.204 124.86 178.223 124.862 178.242V180.08C124.86 180.099 124.862 180.118 124.868 180.136C124.875 180.154 124.886 180.17 124.899 180.184C124.913 180.197 124.93 180.208 124.949 180.214C124.967 180.22 124.987 180.222 125.006 180.22H126.505V184.99C126.449 185.478 126.496 185.972 126.642 186.442C126.788 186.912 127.03 187.349 127.355 187.725C127.672 188.02 128.048 188.248 128.459 188.395C128.87 188.543 129.309 188.606 129.746 188.581C130.377 188.595 131.006 188.505 131.605 188.314L131.792 188.244C131.821 188.234 131.845 188.214 131.861 188.189C131.876 188.163 131.883 188.134 131.879 188.104L131.764 186.295C131.763 186.275 131.758 186.255 131.748 186.238C131.738 186.221 131.724 186.206 131.706 186.196C131.673 186.172 131.632 186.162 131.591 186.168L131.245 186.253C130.919 186.322 130.586 186.355 130.252 186.351C129.748 186.351 129.258 186.239 129.258 184.906V180.192H131.856C131.875 180.194 131.895 180.192 131.914 180.186C131.932 180.18 131.949 180.17 131.963 180.156C131.977 180.143 131.987 180.126 131.994 180.108C132 180.09 132.002 180.071 132 180.052V178.215C131.988 178.183 131.967 178.155 131.939 178.135C131.91 178.114 131.877 178.103 131.842 178.102Z" fill="white"/>
<path d="M83.5969 182.984C84.4406 182.984 85.1245 182.318 85.1245 181.497C85.1245 180.676 84.4406 180.01 83.5969 180.01C82.7533 180.01 82.0693 180.676 82.0693 181.497C82.0693 182.318 82.7533 182.984 83.5969 182.984Z" fill="white"/>
<path d="M98.5689 168.395C98.6122 168.353 98.6449 168.302 98.6644 168.246C98.6839 168.19 98.6896 168.13 98.6812 168.072C98.6727 168.013 98.6503 167.957 98.6157 167.909C98.581 167.86 98.5352 167.82 98.4818 167.792L98.2077 167.637C96.4144 166.626 94.3788 166.094 92.3065 166.094C90.2342 166.094 88.1986 166.626 86.4053 167.637L86.1455 167.792C86.0921 167.82 86.0463 167.86 86.0117 167.909C85.977 167.957 85.9546 168.013 85.9462 168.072C85.9377 168.13 85.9435 168.19 85.963 168.246C85.9825 168.302 86.0152 168.353 86.0585 168.395L86.8937 169.208C86.9539 169.269 87.0343 169.309 87.1211 169.319C87.2079 169.329 87.2956 169.309 87.3691 169.263C88.8664 168.418 90.5665 167.973 92.2974 167.973C94.0283 167.973 95.7285 168.418 97.2257 169.263H97.24C97.3153 169.304 97.4016 169.32 97.4869 169.31C97.5722 169.3 97.6521 169.264 97.7154 169.208L98.5689 168.395Z" fill="white"/>
<path d="M95.9458 170.331C94.8316 169.735 93.5815 169.422 92.3105 169.42C91.0395 169.417 89.7882 169.726 88.6716 170.317C88.6209 170.347 88.5777 170.388 88.5454 170.436C88.513 170.485 88.4922 170.54 88.4845 170.597C88.4822 170.685 88.5132 170.77 88.5715 170.836L89.4938 171.734C89.5506 171.791 89.6238 171.829 89.7036 171.844C89.7835 171.859 89.8661 171.851 89.9406 171.819C90.6759 171.484 91.4777 171.312 92.2892 171.313C93.1047 171.317 93.91 171.489 94.652 171.819C94.7262 171.852 94.8093 171.862 94.8895 171.847C94.9697 171.831 95.0429 171.792 95.0989 171.734L95.9926 170.864C96.0267 170.828 96.0532 170.786 96.0706 170.741C96.088 170.695 96.0959 170.646 96.0939 170.597V170.569C96.096 170.52 96.0831 170.471 96.0568 170.428C96.0304 170.386 95.9919 170.352 95.9458 170.331Z" fill="white"/>
</g>
<path d="M138.505 110.089L137.809 109.556C143.507 102.187 149.897 98.9153 156.284 100.099L156.128 100.955C148.508 99.5419 142.334 105.142 138.505 110.089Z" fill="#ED9C9C"/>
<path d="M140.5 127L146.277 121.496L146 120.5L133 121L132 123L140.5 127Z" fill="#ED9C9C"/>
<path d="M86.4385 134.389L131.25 120.129L144.245 126.03C144.976 126.362 145.038 127.377 144.352 127.795L133.522 134.389H86.4385Z" fill="#79B1DF"/>
<path d="M144.765 127.543C145.041 127.375 144.892 126.948 144.571 126.989L86.4385 134.389H133.522L144.765 127.543Z" fill="#3A8CDD"/>
<path d="M155.582 153.396C155.582 153.396 131.913 160.806 155.606 160.458C155.606 160.458 131.384 164.492 155.606 165.937C155.606 165.937 132.195 169.647 155.627 171.468C155.627 171.468 132.536 175.505 155.627 176.529L156.671 176.508C157.723 176.49 158.746 176.162 159.613 175.566C160.48 174.97 161.151 174.132 161.544 173.156C163.673 167.947 163.797 162.134 161.893 156.838C161.498 155.757 160.764 154.832 159.8 154.201C158.837 153.571 157.695 153.269 156.546 153.34L155.582 153.396Z" fill="#FFC1C2"/>
<path d="M145.16 159.097L155.602 160.458C155.602 160.458 145.936 162.233 145.16 159.097Z" fill="#ED9C9C"/>
<path d="M144.857 163.782L155.623 165.937C155.623 165.937 145.331 168.245 144.857 163.782Z" fill="#ED9C9C"/>
<path d="M145.23 169.16L155.644 171.468C155.644 171.468 144.614 172.808 145.23 169.16Z" fill="#ED9C9C"/>
<path d="M145.386 174.76L158.898 175.986C158.898 175.986 146.273 179.745 145.386 174.76Z" fill="#ED9C9C"/>
<circle cx="84" cy="217.5" r="4.5" fill="white"/>
<path d="M179.015 43.2107C179.387 40.5329 175.585 38.3306 172.721 38.0991C171.362 37.9927 169.946 38.1992 168.655 37.7549C165.861 36.7852 164.747 33.1939 162.021 32.0489C159.982 31.198 157.616 31.955 155.658 32.9436C153.701 33.9321 151.731 35.1772 149.521 35.3211C147.633 35.44 145.512 34.733 143.857 35.6652C142.598 36.3597 141.969 37.7987 140.798 38.6434C139.627 39.488 138.192 39.6445 136.795 39.7195C135.398 39.7946 133.944 39.8134 132.666 40.389C131.388 40.9646 130.337 42.316 130.602 43.68L179.015 43.2107Z" fill="white"/>
<path d="M89.2631 61.1135C89.5243 59.1824 86.8176 57.5957 84.785 57.4288C83.8145 57.3507 82.8052 57.4998 81.8877 57.1768C79.8939 56.4669 79.0999 53.8933 77.1554 53.0662C75.7051 52.4521 74.0324 52.9988 72.6243 53.7123C71.2163 54.4258 69.8224 55.3239 68.2485 55.4232C66.8792 55.512 65.3936 55.0008 64.1973 55.6753C63.3045 56.1758 62.8386 57.2088 62.0164 57.8051C61.1942 58.4015 60.1602 58.5151 59.1615 58.5825C58.1628 58.65 57.1289 58.65 56.2219 59.0688C55.315 59.4877 54.5598 60.4532 54.7504 61.44L89.2631 61.1135Z" fill="white"/>
</g>
<defs>
<clipPath id="clip0_112_528">
<rect width="240" height="240" rx="120" fill="white"/>
</clipPath>
<clipPath id="clip1_112_528">
<rect width="81" height="22.5" fill="white" transform="translate(51 166.095)"/>
</clipPath>
</defs>
</svg>
