<svg width="160" height="111" viewBox="0 0 160 111" fill="none" xmlns="http://www.w3.org/2000/svg">
<path fill-rule="evenodd" clip-rule="evenodd" d="M35.3464 14.795L64.5967 61.6454L34.9008 82.9291L5.65039 36.0788L35.3464 14.795V14.795Z" fill="#F5F5F5"/>
<path fill-rule="evenodd" clip-rule="evenodd" d="M50.4956 64.4789L35.7324 62.1989L36.0685 59.9644L50.8318 62.2443L50.4956 64.4789V64.4789Z" fill="#E0E0E0"/>
<path fill-rule="evenodd" clip-rule="evenodd" d="M45.6688 54.6484L43.3212 70.2223L41.2012 69.8933L43.5514 54.3223L45.6688 54.6484V54.6484Z" fill="#E0E0E0"/>
<path fill-rule="evenodd" clip-rule="evenodd" d="M21.585 38.1378C17.8929 40.7807 14.8836 42.9019 14.8624 42.8678C14.8412 42.8338 17.8161 40.6616 21.5082 38.0159C25.2004 35.3701 28.1964 33.2547 28.2308 33.2887C28.252 33.3199 25.2771 35.4949 21.585 38.1378V38.1378Z" fill="#E0E0E0"/>
<path fill-rule="evenodd" clip-rule="evenodd" d="M28.0871 38.3097C21.9626 42.6994 16.971 46.2299 16.9551 46.1987C16.9392 46.1675 21.878 42.5775 28.0103 38.1877C34.1427 33.798 39.1184 30.2675 39.1396 30.3015C39.1608 30.3355 34.2115 33.9199 28.0871 38.3097V38.3097Z" fill="#E0E0E0"/>
<path fill-rule="evenodd" clip-rule="evenodd" d="M30.2785 42.0186C24.154 46.4083 19.1624 49.9388 19.1465 49.9048C19.1306 49.8708 24.0746 46.2864 30.2017 41.8938C36.3288 37.5012 41.3098 33.9736 41.331 34.0076C41.3522 34.0416 36.4029 37.6288 30.2785 42.0186V42.0186Z" fill="#E0E0E0"/>
<path fill-rule="evenodd" clip-rule="evenodd" d="M32.4647 45.7194C26.3403 50.1063 21.3486 53.6424 21.3486 53.6084C21.3486 53.5744 26.2741 49.9872 32.4012 45.5974C38.5282 41.2077 43.496 37.6772 43.5172 37.7112C43.5384 37.7452 38.5891 41.3325 32.4647 45.7194V45.7194Z" fill="#E0E0E0"/>
<path fill-rule="evenodd" clip-rule="evenodd" d="M34.6449 49.429C28.5205 53.8187 23.5289 57.3492 23.5156 57.3152C23.5024 57.2812 28.4491 53.6968 34.5814 49.3071C40.7138 44.9173 45.6975 41.3868 45.6975 41.4208C45.7187 41.4549 40.7694 45.0392 34.6449 49.429V49.429Z" fill="#E0E0E0"/>
<path fill-rule="evenodd" clip-rule="evenodd" d="M132.982 51.0945L157.547 90.4401L132.607 108.315L108.042 68.9694L132.982 51.0945V51.0945Z" fill="#F5F5F5"/>
<path fill-rule="evenodd" clip-rule="evenodd" d="M144.378 89.5772L131.979 87.6631L132.264 85.7858L144.661 87.6999L144.378 89.5772V89.5772Z" fill="#E0E0E0"/>
<path fill-rule="evenodd" clip-rule="evenodd" d="M140.195 82.1693L138.224 95.2478L136.442 94.9727L138.417 81.8942L140.195 82.1693V82.1693Z" fill="#E0E0E0"/>
<path fill-rule="evenodd" clip-rule="evenodd" d="M130.281 67.5509C127.179 69.7713 124.649 71.5465 124.628 71.521C124.607 71.4955 127.105 69.6607 130.205 67.4375C133.304 65.2143 135.837 63.4193 135.858 63.4674C135.879 63.5015 133.383 65.3305 130.281 67.5509V67.5509Z" fill="#E0E0E0"/>
<path fill-rule="evenodd" clip-rule="evenodd" d="M126.903 67.7676C121.771 71.4512 117.571 74.4174 117.55 74.3834C117.529 74.3494 121.681 71.3321 126.813 67.6456C131.945 63.9592 136.138 60.9986 136.167 61.0327C136.188 61.0667 132.035 64.084 126.903 67.7676V67.7676Z" fill="#E0E0E0"/>
<path fill-rule="evenodd" clip-rule="evenodd" d="M128.744 70.8759C123.612 74.5623 119.412 77.5228 119.391 77.4888C119.37 77.4548 123.509 74.4517 128.654 70.7653C133.799 67.0788 137.992 64.1069 138.007 64.1381C138.029 64.1722 133.876 67.1894 128.744 70.8759V70.8759Z" fill="#E0E0E0"/>
<path fill-rule="evenodd" clip-rule="evenodd" d="M130.58 73.9777C125.451 77.6642 121.248 80.6247 121.227 80.5906C121.205 80.5566 125.358 77.5422 130.49 73.8529C135.622 70.1636 139.825 67.2116 139.843 67.24C139.865 67.274 135.709 70.2912 130.58 73.9777V73.9777Z" fill="#E0E0E0"/>
<path fill-rule="evenodd" clip-rule="evenodd" d="M132.432 77.0926C127.3 80.7791 123.099 83.7396 123.078 83.7084C123.057 83.6772 127.21 80.6572 132.342 76.9707C137.473 73.2842 141.661 70.3237 141.695 70.3577C141.716 70.3917 137.563 73.4061 132.432 77.0926Z" fill="#E0E0E0"/>
<path fill-rule="evenodd" clip-rule="evenodd" d="M71.0405 0.922629L98.2531 16.5169L76.8219 59.449L49.6094 43.8547L71.0405 0.922629V0.922629Z" fill="#F5F5F5"/>
<path fill-rule="evenodd" clip-rule="evenodd" d="M70.3497 48.425L65.9668 35.4458L67.6951 34.8105L72.0753 47.7926L70.3497 48.425V48.425Z" fill="#E0E0E0"/>
<path fill-rule="evenodd" clip-rule="evenodd" d="M75.3238 40.3943L63.292 44.8096L62.6621 42.9465L74.6939 38.5312L75.3238 40.3943V40.3943Z" fill="#E0E0E0"/>
<path fill-rule="evenodd" clip-rule="evenodd" d="M77.522 14.126C74.137 12.1892 71.4135 10.5814 71.4347 10.5388C71.4559 10.4963 74.2164 12.0333 77.6015 13.9701C80.9865 15.9069 83.7074 17.5119 83.6862 17.5573C83.665 17.5998 80.9072 16.0629 77.522 14.126V14.126Z" fill="#E0E0E0"/>
<path fill-rule="evenodd" clip-rule="evenodd" d="M80.1441 19.5293C74.5305 16.3136 69.9994 13.6707 70.0206 13.6281C70.0417 13.5856 74.6073 16.1576 80.2209 19.3762C85.8345 22.5948 90.3683 25.2349 90.3471 25.2774C90.3259 25.3199 85.7578 22.7451 80.1441 19.5293V19.5293Z" fill="#E0E0E0"/>
<path fill-rule="evenodd" clip-rule="evenodd" d="M78.4498 23.604C72.8362 20.3855 68.3051 17.7454 68.3263 17.7029C68.3474 17.6603 72.9129 20.2352 78.5265 23.4509C84.1402 26.6667 88.6739 29.3096 88.6527 29.3521C88.6316 29.3946 84.0634 26.8226 78.4498 23.604V23.604Z" fill="#E0E0E0"/>
<path fill-rule="evenodd" clip-rule="evenodd" d="M76.7535 26.9929C71.1399 23.7772 66.6088 21.1428 66.63 21.0917C66.6511 21.0407 71.2167 23.6212 76.8303 26.837C82.4439 30.0527 86.9776 32.6956 86.9565 32.7382C86.9353 32.7807 82.3671 30.2087 76.7535 26.9929V26.9929Z" fill="#E0E0E0"/>
<path fill-rule="evenodd" clip-rule="evenodd" d="M75.0562 30.3814C69.4427 27.1656 64.9089 24.5227 64.9327 24.4802C64.9565 24.4377 69.5194 27.0097 75.133 30.2254C80.7466 33.4412 85.2804 36.0841 85.2592 36.1266C85.238 36.1692 80.6699 33.5971 75.0562 30.3814V30.3814Z" fill="#E0E0E0"/>
<path fill-rule="evenodd" clip-rule="evenodd" d="M80.0029 109.83C35.825 109.83 0 109.804 0 109.756C0 109.709 35.8139 109.683 80.0029 109.683C124.192 109.683 160 109.714 160 109.756C160 109.796 124.181 109.83 80.0029 109.83V109.83Z" fill="#CCCCCC"/>
<path fill-rule="evenodd" clip-rule="evenodd" d="M10.7804 93.2742C11.3521 94.0166 11.7568 94.8897 11.9635 95.8264C12.4108 97.6185 12.1355 99.7368 11.6591 101.52C9.84882 100.826 8.72926 98.7557 8.21846 97.6667C7.42445 95.9483 6.95863 92.3213 8.45665 91.9981C9.36077 92.0679 10.1995 92.5287 10.7804 93.2742V93.2742Z" fill="#CCCCCC"/>
<path fill-rule="evenodd" clip-rule="evenodd" d="M14.1357 100.638C14.6185 99.6841 15.4384 98.978 16.4119 98.6785C16.8539 98.5311 17.3673 98.4715 17.7511 98.7466C18.1034 99.0321 18.2828 99.5003 18.2196 99.9688C18.1502 100.43 17.9673 100.862 17.6902 101.222C16.8089 102.501 15.7582 103.565 14.2681 103.695C13.7147 102.775 13.6641 101.608 14.1357 100.638V100.638Z" fill="#CCCCCC"/>
<path fill-rule="evenodd" clip-rule="evenodd" d="M14.3855 109.314C14.4064 109.438 14.4654 109.56 14.4675 109.686C14.4284 109.565 14.4008 109.441 14.3855 109.314C14.3564 109.07 14.3511 108.716 14.2876 108.282C14.1658 107.411 13.9567 106.2 14.1261 104.879C14.2502 103.746 14.5713 102.608 15.1901 101.68" fill="#CCCCCC"/>
<path fill-rule="evenodd" clip-rule="evenodd" d="M14.3872 109.314C14.3395 109.047 14.276 108.704 14.1993 108.293C13.9616 107.167 13.8954 106.007 14.0034 104.859C14.1283 103.705 14.5386 102.607 15.1918 101.68C15.3913 101.403 15.6216 101.152 15.8773 100.934C15.9469 100.875 16.0191 100.82 16.0943 100.77C15.7595 101.076 15.4644 101.309 15.1918 101.68" fill="#CCCCCC"/>
<path fill-rule="evenodd" clip-rule="evenodd" d="M9.11317 94.873C9.09332 94.8225 9.05098 94.7817 9.03906 94.7284C9.06924 94.7732 9.09412 94.8217 9.11317 94.873C9.15552 94.9893 9.22962 95.1254 9.29844 95.3069C9.4493 95.7067 9.60811 96.2739 9.87277 96.9459C10.3968 98.3128 11.1167 100.207 11.8763 102.308C12.6359 104.41 13.3743 106.295 13.8481 107.682" fill="#CCCCCC"/>
<path fill-rule="evenodd" clip-rule="evenodd" d="M9.1123 94.8737C9.15995 94.9871 9.22347 95.1289 9.29757 95.3075Z" fill="#CCCCCC"/>
<path fill-rule="evenodd" clip-rule="evenodd" d="M9.2998 95.3082C9.46125 95.6854 9.68623 96.2327 9.95883 96.9104C10.504 98.2687 11.2345 100.157 11.9968 102.261C12.759 104.366 13.4075 106.285 13.8495 107.683L14.3788 109.342" fill="#CCCCCC"/>
<path fill-rule="evenodd" clip-rule="evenodd" d="M13.8486 107.682C14.0763 108.38 14.2536 108.947 14.378 109.341C14.4336 109.529 14.4759 109.679 14.5103 109.795C14.5257 109.849 14.5233 109.909 14.55 109.957C14.5426 109.901 14.5291 109.847 14.5103 109.795" fill="#CCCCCC"/>
<path fill-rule="evenodd" clip-rule="evenodd" d="M14.5122 109.799C14.4725 109.685 14.446 109.529 14.3799 109.345Z" fill="#CCCCCC"/>
<path fill-rule="evenodd" clip-rule="evenodd" d="M12.3178 105.724C11.2131 103.753 9.29002 102.473 7.15149 102.284C6.62216 102.244 5.97108 102.341 5.73288 102.851C5.49467 103.362 5.81227 103.985 6.17752 104.399C7.76447 106.178 10.1939 106.76 12.3363 105.874" fill="#CCCCCC"/>
<path fill-rule="evenodd" clip-rule="evenodd" d="M13.8441 107.851C13.9235 108.017 13.9944 108.187 14.0558 108.362C14.109 108.491 14.154 108.624 14.1908 108.759C14.23 108.872 14.2594 108.989 14.2782 109.108C14.2491 109.108 14.2014 108.577 13.8441 107.851C13.7467 107.656 13.5604 107.51 13.4445 107.327C13.3156 107.112 13.1758 106.905 13.0263 106.706C12.3339 105.789 11.4512 105.059 10.4484 104.573C10.2182 104.466 9.99848 104.363 9.7841 104.29C9.58719 104.213 9.38684 104.148 9.18331 104.094C8.44224 103.876 7.96318 103.85 7.96583 103.819C8.07805 103.813 8.19054 103.818 8.30196 103.833C8.43245 103.841 8.56239 103.857 8.69102 103.881C8.84188 103.913 9.01921 103.93 9.20448 103.986C9.41145 104.033 9.61577 104.094 9.81586 104.168C10.0477 104.247 10.2748 104.342 10.4961 104.451C11.0047 104.696 11.4862 105.001 11.9306 105.362C12.3699 105.731 12.7677 106.153 13.1163 106.621C13.2669 106.824 13.4056 107.037 13.5318 107.259C13.6459 107.45 13.7502 107.648 13.8441 107.851" fill="#CCCCCC"/>
<path fill-rule="evenodd" clip-rule="evenodd" d="M46.9177 103.097L45.7002 109.846L108.162 109.523C110.967 109.509 113.455 106.84 114.352 102.876L125.431 54.206C126.117 51.1973 124.614 48.0666 122.486 48.0695L59.2512 48.1403C57.8749 48.1375 56.6415 49.5327 56.287 51.5432L46.9177 103.097V103.097Z" fill="#CCCCCC"/>
<g opacity="0.5">
<path fill-rule="evenodd" clip-rule="evenodd" d="M46.9177 103.097L45.7002 109.846L108.162 109.523C110.967 109.509 113.455 106.84 114.352 102.876L125.431 54.206C126.117 51.1973 124.614 48.0666 122.486 48.0695L59.2512 48.1403C57.8749 48.1375 56.6415 49.5327 56.287 51.5432L46.9177 103.097V103.097Z" fill="#EEEEEE"/>
</g>
<path fill-rule="evenodd" clip-rule="evenodd" d="M95.5611 42.4817C95.2965 40.1423 93.5523 38.3955 91.4959 38.4039L76.9921 38.4522C75.9027 38.4652 74.8665 38.9575 74.1257 39.8133L67.2443 47.6599L26.9089 47.8924C24.4448 47.9066 22.5498 50.4076 22.8753 53.2151L29.0183 106.003C29.283 108.339 31.0271 110.083 33.0783 110.08L103.387 109.93C111.216 110.103 111.965 107.627 111.965 107.627C102.977 109.757 102.178 99.6107 102.178 99.5966L95.5611 42.4817V42.4817Z" fill="#CCCCCC"/>
<path fill-rule="evenodd" clip-rule="evenodd" d="M43.0998 76.6254L45.8089 80.4896L45.5514 76.6254H47.4461L47.9114 83.6061H45.9918L43.2993 79.7685L43.5568 83.6061H41.6621L41.2217 76.6254H43.0998V76.6254Z" fill="white"/>
<path fill-rule="evenodd" clip-rule="evenodd" d="M51.8849 76.6335C52.8213 76.5801 53.741 76.9085 54.4527 77.55C55.1046 78.232 55.4823 79.1505 55.5082 80.1163C55.5767 80.7827 55.4912 81.4565 55.2589 82.0806C55.0437 82.5831 54.683 83.0017 54.2282 83.2765C53.6828 83.5836 53.0685 83.7313 52.4499 83.7041C51.8142 83.7254 51.1816 83.6001 50.5967 83.3375C50.0843 83.0791 49.6522 82.6736 49.3501 82.1677C48.9936 81.5719 48.7904 80.8894 48.7602 80.1864C48.6305 79.246 48.8907 78.2927 49.4748 77.5676C50.1134 76.9077 50.9911 76.5677 51.8849 76.6335V76.6335ZM52.2758 82.1235C52.6494 82.1507 53.0126 81.9845 53.2479 81.6782C53.4866 81.2013 53.5657 80.654 53.4723 80.1242C53.4758 79.611 53.3116 79.1116 53.007 78.7101C52.7376 78.412 52.3591 78.2498 51.9682 78.2651C51.6014 78.2484 51.2491 78.4171 51.0207 78.7189C50.7775 79.1686 50.6922 79.6765 50.7798 80.1855C50.7716 80.7209 50.9357 81.2438 51.2451 81.6695C51.5079 81.9734 51.8851 82.1396 52.2758 82.1235V82.1235Z" fill="white"/>
<path fill-rule="evenodd" clip-rule="evenodd" d="M63.8518 76.883C64.217 77.0469 64.5415 77.3001 64.7993 77.622C65.061 77.949 65.2614 78.327 65.3892 78.735C65.5239 79.1734 65.6078 79.628 65.6385 80.0885C65.7023 80.6704 65.66 81.2603 65.5139 81.8249C65.3995 82.2159 65.1968 82.5707 64.9239 82.8576C64.6963 83.1157 64.4099 83.306 64.0928 83.4097C63.7064 83.5297 63.3068 83.5955 62.9045 83.6057H59.9212L59.4141 76.6249H62.4059C62.8989 76.6082 63.3904 76.6958 63.8518 76.883V76.883ZM62.2792 82.0218C62.5825 82.043 62.8864 81.9911 63.1685 81.8703C63.3546 81.7546 63.4914 81.5664 63.5507 81.3449C63.6459 80.9496 63.6685 80.5384 63.6171 80.134C63.633 79.5907 63.4779 79.0576 63.1767 78.6203C62.8646 78.318 62.4489 78.1694 62.0299 78.2108H61.5312L61.7888 82.0218H62.2792V82.0218Z" fill="white"/>
<path fill-rule="evenodd" clip-rule="evenodd" d="M67.9405 83.6061H65.8877L67.8656 76.6254H70.0927L73.0096 83.6061H70.8989L70.4667 82.4486H68.1813L67.9405 83.6061V83.6061ZM68.5125 80.9432H69.942L69.0612 78.4324L68.5125 80.9432V80.9432Z" fill="white"/>
<path fill-rule="evenodd" clip-rule="evenodd" d="M78.1768 76.6254L78.2932 78.3526H76.2405L76.5896 83.6061H74.5786L74.2295 78.3526H72.1767L72.0605 76.6254H78.1768V76.6254Z" fill="white"/>
<path fill-rule="evenodd" clip-rule="evenodd" d="M80.3416 83.6061H78.2891L80.2669 76.6254H82.4608L85.3695 83.6061H83.2669L82.8681 82.4486H80.5827L80.3416 83.6061V83.6061ZM80.8969 80.9432H82.3428L81.4538 78.4324L80.8969 80.9432Z" fill="white"/>
<path fill-rule="evenodd" clip-rule="evenodd" d="M39.7407 28.0668L39.6349 25.4352C39.6217 25.1443 39.831 24.897 40.1026 24.8825C40.1491 24.8802 40.1957 24.8848 40.241 24.8964C40.6552 24.9922 41.0879 24.9009 41.4373 24.644C41.7591 24.426 41.9822 24.0749 42.054 23.6742C42.1024 23.2687 41.9955 22.8595 41.7575 22.5399C41.5072 22.1764 41.1318 21.9347 40.7147 21.8678C39.8575 21.8168 39.0796 22.4035 38.8356 23.2857C38.7509 23.5642 38.4714 23.7162 38.2115 23.6254C37.968 23.5401 37.8254 23.2698 37.8828 23.0021C38.2539 21.6129 39.4835 20.6933 40.8285 20.7987C41.5148 20.8966 42.1347 21.2885 42.5462 21.8848C42.9467 22.4375 43.1214 23.1402 43.0306 23.833C42.9091 24.5252 42.5259 25.1326 41.9719 25.5118C41.5749 25.7982 41.1109 25.9604 40.6327 25.9797L40.7147 28.0101C40.7248 28.3027 40.5115 28.5488 40.2383 28.5596C40.1658 28.5625 40.1068 28.5593 40.0398 28.529C39.8649 28.4502 39.7484 28.2698 39.7407 28.0668V28.0668Z" fill="#CCCCCC"/>
<path fill-rule="evenodd" clip-rule="evenodd" d="M40.3912 30.0694C40.1681 30.0862 39.9746 29.9058 39.959 29.6667C39.9436 29.4277 40.1117 29.2204 40.3348 29.2037C40.5563 29.1861 40.7503 29.369 40.767 29.6063C40.7826 29.8454 40.6143 30.0527 40.3912 30.0694V30.0694Z" fill="#CCCCCC"/>
<path fill-rule="evenodd" clip-rule="evenodd" d="M31.5371 24.8156C31.5485 24.7594 31.5564 24.7027 31.5609 24.6454C31.5689 24.5207 31.5953 24.3562 31.6112 24.1378" fill="#CCCCCC"/>
<path fill-rule="evenodd" clip-rule="evenodd" d="M31.5596 24.6479C31.5596 24.5231 31.5887 24.3643 31.6099 24.1402C31.6358 23.8652 31.6792 23.5924 31.7395 23.3235" fill="#CCCCCC"/>
<path fill-rule="evenodd" clip-rule="evenodd" d="M31.6113 24.1358C31.6285 23.859 31.6844 23.5897 31.741 23.3191C31.7754 23.1603 31.794 22.9845 31.8469 22.8059C31.8998 22.6272 31.9528 22.4344 32.011 22.2387C32.3066 21.255 32.7656 20.3708 33.3343 19.5362C34.081 18.4501 34.9551 17.4727 36.0525 16.8111C36.6795 16.4305 37.347 16.1316 38.0401 15.9207C38.7889 15.702 39.5614 15.5894 40.3375 15.586C40.7453 15.5812 41.1529 15.6059 41.5576 15.6598C41.764 15.6796 41.9678 15.7363 42.1742 15.776C42.3841 15.8112 42.5911 15.8634 42.7936 15.932C43.6495 16.183 44.4639 16.5751 45.2073 17.0947C46.8549 18.2332 48.1105 19.9168 48.783 21.8899C49.1414 22.9496 49.3205 24.0692 49.3123 25.1964C49.3242 26.3588 49.1321 27.5132 48.7459 28.5993L48.6242 28.8488C49.2859 30.4879 49.8973 32.0334 50.5272 33.5902L50.6542 33.8681L50.416 33.7263L46.5346 32.1665V32.1665L46.4857 32.1468L46.573 32.127C46.5602 32.1402 46.5474 32.1533 46.5346 32.1665C45.477 33.247 44.1893 34.0358 42.783 34.4636C40.3105 35.1836 37.6685 34.7313 35.5284 33.2216C34.6646 32.6076 33.9735 31.7668 33.3502 30.8792C32.4506 29.6065 31.8675 28.1096 31.6563 26.5292" fill="#CCCCCC"/>
<path fill-rule="evenodd" clip-rule="evenodd" d="M32.0098 22.2418C32.3162 21.2723 32.7627 20.3606 33.3331 19.5394Z" fill="#CCCCCC"/>
<path fill-rule="evenodd" clip-rule="evenodd" d="M33.334 19.5396C34.0814 18.4765 35.0292 17.5935 36.1156 16.9477C36.7342 16.5743 37.3927 16.2828 38.0768 16.08C38.8153 15.8704 39.5759 15.7635 40.3397 15.7624C40.742 15.7556 41.1446 15.7783 41.544 15.8305C41.7478 15.8532 41.9489 15.9099 42.1527 15.9467C42.3589 15.9845 42.5622 16.0378 42.7615 16.1055C43.5957 16.3554 44.3892 16.7407 45.1144 17.2483C46.7267 18.3687 47.955 20.0211 48.6133 21.9557C48.9679 22.9919 49.1471 24.0876 49.1426 25.1913C49.1535 26.3281 48.9658 27.4573 48.5895 28.5204L48.4704 28.8437C49.1347 30.4799 49.7937 32.1729 50.4156 33.7297" fill="#CCCCCC"/>
<path fill-rule="evenodd" clip-rule="evenodd" d="M50.416 33.5921L50.527 33.7267Z" fill="#CCCCCC"/>
<path fill-rule="evenodd" clip-rule="evenodd" d="M50.5266 33.5931L46.5565 31.9626L46.4692 31.9824C45.419 33.0728 44.1332 33.8676 42.7268 34.2964C40.2958 35.0135 37.6947 34.5811 35.5807 33.1082C34.7248 32.5067 33.9703 31.7541 33.3496 30.8821" fill="#CCCCCC"/>
<path fill-rule="evenodd" clip-rule="evenodd" d="M33.3497 30.8822C32.8482 30.1396 32.3718 29.4028 32.0687 28.5456C31.8549 27.8965 31.7429 27.2142 31.6558 26.5322C31.6241 26.2486 31.5976 26.0104 31.5738 25.7949C31.55 25.5794 31.5738 25.4036 31.5606 25.2533C31.5473 25.103 31.5606 25.0037 31.5606 24.9215" fill="#CCCCCC"/>
<path fill-rule="evenodd" clip-rule="evenodd" d="M31.5367 24.8169C31.5402 24.8414 31.5375 24.9174 31.5605 24.921C31.5894 24.9162 31.541 24.8479 31.5367 24.8169C31.5328 24.7547 31.5494 24.7091 31.5605 24.6481" fill="#CCCCCC"/>
<path fill-rule="evenodd" clip-rule="evenodd" d="M31.5605 25.2547L31.573 25.7971Z" fill="#CCCCCC"/>
<path fill-rule="evenodd" clip-rule="evenodd" d="M31.5732 25.798C31.5732 26.0135 31.6288 26.2545 31.6553 26.5353Z" fill="#CCCCCC"/>
<path fill-rule="evenodd" clip-rule="evenodd" d="M32.0098 22.2408C31.9542 22.445 31.8933 22.6407 31.8457 22.808Z" fill="#CCCCCC"/>
<path fill-rule="evenodd" clip-rule="evenodd" d="M31.8461 22.808C31.804 22.979 31.7651 23.1466 31.7402 23.3212Z" fill="#CCCCCC"/>
</svg>
